<?xml version="1.0" encoding="utf-8"?>
<!-- Generator: Adobe Illustrator 24.2.3, SVG Export Plug-In . SVG Version: 6.00 Build 0)  -->
<svg version="1.1" id="logo-Polished" xmlns="http://www.w3.org/2000/svg" xmlns:xlink="http://www.w3.org/1999/xlink" x="0px"
	 y="0px" viewBox="0 0 800 800" style="enable-background:new 0 0 800 800;" xml:space="preserve">
<style type="text/css">
	.st0{clip-path:url(#SVGID_2_);}
	.st1{fill:#2A70D6;}
	.st2{fill:#FFFFFF;stroke:#FFFFFF;stroke-width:8;stroke-miterlimit:10;}
	.st3{fill:#F92B8C;stroke:#F92B8C;stroke-width:8;stroke-miterlimit:10;}
	.st4{opacity:0.99;}
	.st5{fill:#FFFFFF;stroke:#FFFFFF;stroke-width:17;stroke-miterlimit:10;}
	.st6{fill:#F0F7FB;}
</style>
<g>
	<defs>
		<circle id="SVGID_1_" cx="400" cy="400" r="400"/>
	</defs>
	<clipPath id="SVGID_2_">
		<use xlink:href="#SVGID_1_"  style="overflow:visible;"/>
	</clipPath>
	<g class="st0">
		<rect id="Rectangle_85" class="st1" width="800" height="800"/>
		<g id="Group_1008">
			<path id="Path_441" class="st2" d="M433.6,384c-3.5-3.4-10.3-4.2-15.7-6.2s-7.7-5.2-13.9-6.5c-4.1-4.4-8.2-8.8-12.3-13.4
				c-0.5-0.5-0.7-1.2-0.7-1.9c0-13.4-1.3-26.7,0.5-40c2.3-18.1,5.7-36.2,5.6-54.5v-18.6c4.8-0.6,6.6,0.6,6.4,2.3
				c-1.2,8.1,3.8,15.9,5,23.9c2.6,17.5,1.4,35.1,5.7,52.5c0.7,3-2.1,6.4,3,9.3c5.7-1.3,6-3.8,6.2-6.3c0.4-14.4,1.9-28.7,4.6-42.8
				c2.3-11.5,2.2-23.1,4.5-34.5c0.6-1.9,1.8-3.5,3.4-4.6c3.7,10.5,5.1,21,5.6,31.7c-0.4,0.5,2.7,43.8,5.9,58.4
				c4.8,0.5,4.8,0.5,9.2-0.8c0.4-0.5,0.6-1.2,0.7-1.8c-0.2-10,3.5-19.7,3.7-29.7c0.2-11.1,3.1-22.1,4.2-33.2
				c0.6-6.4,1.9-12.8,2.2-19.3c0.1-1.7,1-3.2,4.1-4.4c2.8,0.7,1.9,2,1.9,3c-0.1,22.8,4.5,45.4,3.8,68.2c-0.2,3.6-0.1,7.2,0.5,10.8
				c0.5,2.4,2.1,4.9,10,5c3-14.8,3.8-29.3,6.6-43.8s1.9-28.8,7-43.1c3-0.8,4.9-0.2,5.7,1.3c0.5,0.9,0.7,2,0.7,3
				c2.1,29,3.5,58.1,3.2,87.1c0,5.7-0.2,11.4,0.1,17.1c0.4,7-4.5,12.8-12.1,18.7c-5.4,4.2-12.2,6.9-19.9,9.5c-7,2.3-8.1,6.4-7.7,10
				c4.1,35.5,0.6,71.1,3.2,106.6c1.7,22.9-1.2,45.9,3.5,68.5c3.6,17.7,0.9,35.2,3.8,52.6c1.4,8.2-3.1,15.3-12.3,22
				c-5.2,3.7-23.6,4.4-30.2,1c-10.6-5.2-16.6-11.3-16.1-19c1-22.2,0.7-44.4,3.1-66.6c1.6-14.9-1.4-29.9,1.5-44.6
				c7-34.4,0.8-68.8,5.8-103.2C434.5,400.2,433.6,392.1,433.6,384z"/>
			<path id="Path_442" class="st2" d="M620.9,235.9h7.4c4,0.7,4.3,2.6,5.5,4.3c3.1,4.9,7.1,9.4,7,14.9c-0.7,22.7,2.3,45.5-1.6,68.1
				s-1.6,44.6-2.6,66.9s-2.8,45,0.8,67.3s0.9,44.6,4.1,66.9c2.6,17.8,1.7,35.5,2.7,53.3c0.6,10.8,3,21.6,2.9,32.4
				c-0.1,6.2-1.2,12.3-6.2,18c-5.6,6.3-15.9,9.1-28.6,8.5c-10.8-0.5-14.9-5-20.7-8.5c-3.8-2.3-5.3-5.1-5.3-8.2
				c-0.1-19.8-0.2-39.5,2.1-59.1c0.7-6-0.5-12.2,1.4-18.1c6.4-20.4,2.1-41.1,5.3-61.6c2.3-14.6,0.9-29.4,2.8-44
				c0.6-5.1-4.1-8.4-12-10.6c-15.2-4.3-21.3-11.5-21.8-19.4c-2.1-25.4-0.3-50.9,3.6-76.1c1.6-10.6,2.9-21.5,8.4-32.1
				c2.3-4.3,1.7-8.8,3.4-13.4c3-8.6,6.5-16.9,10.6-25C593.7,252.3,608.3,241.3,620.9,235.9z"/>
			<path id="Path_443" class="st3" d="M273.4,363.7c19.5,9.8,42.7-4.6,59.1,20.5c1.6,3.4,1.9,8.2,3.3,12.9c3.1,10,0.7,20-4,27.9
				c-7.1,12.2-16.6,19.2-28.6,18.9c-8-0.1-16,0-24.2-0.1c-6-0.1-9.5,3.6-8.8,12.1c1.5,19.5,1.6,39.1,4.9,58.3
				c1.6,9.9,2,20.2,2.4,30.2c0.9,20.2,5.3,39.4,7.2,59.4c3.2,34.8-21.3,57.5-44.8,41c-7.3-5.1-12.8-12.9-13.8-26.1
				c-2.1-27.1-5.8-53.8-8.4-80.7c-1.7-19-2.9-38.2-3.9-57.4c-0.6-10.5-0.6-21-3.5-30.8c-4.4-2.9-8.6-2.3-13.5-1.7
				c-11.1,1.2-22.5,3.2-33.7-2.7c-8.6-4.6-15.8-17-16.1-30c-0.4-14.1,4.6-22.3,14.4-28.8c10.8-7.2,23.2-4.8,34.6-8.8
				c4.6-1.6,9.9-0.2,13.6-4.9c2.7-28.6,3-56.9,4.1-85.1c1.2-31.2,5.8-62.1,17-89.7c11-27.2,24.4-53.8,46-67.1
				c25.3-15.5,51.9-22.6,78.3-2.6c10.5,7.9,13.1,24.2,8.5,38.6c-5.1,16-14.6,20.2-26,20.9c-4.9,0.2-9.9,0.7-14.8-0.1
				c-16.4-2.6-25.8,9.3-31,28.1c-1.4,4.9-3.4,9.7-5.9,14.2c-10.1,17.1-11,37.8-12.8,57.6c-1.5,17.3-4.4,34.6-3.1,52.3
				C270.7,347.9,270.5,356.3,273.4,363.7z"/>
		</g>
		<g id="Group_1007" class="st4">
			<path id="Path_444" class="st5" d="M86,217c0.3-0.9-0.9-1.8,0.3-3.4c4.7-3.7,6.3-11.4,13.8-13.7c2.9-4.2,5.9-8.9,9.2-13.1
				c3.8-4.7,8-9.1,12.6-13c6.4-5.3,11.9-11.7,18.6-16.7c3.6-2.7,7.1-5.8,10.8-8.2c8.7-5.7,15.9-13.2,24.3-19.4
				c12.1-8.9,24.7-17.2,39.1-21.9c5.9-2,11.6-4.6,17-7.8c7.4-4.3,14.8-8.6,23-11c10.4-2.9,20.6-6.6,31.2-9.1
				c12.2-2.8,24.1-7.4,36.5-9.2c17.9-2.5,35.7-6.8,54-5.9c1.9,0.1,3.8,0.3,5.6,0.5c4.1,0.4,8.1,1.4,12.2-0.6
				c4.8-2.2,9.3,0.5,14.9,1.7c-1.5-0.8-1.7-0.2-2.2,0.2c3.4,2,7.9,0.2,10.3,3.3c1.9,0.6,2.5-0.9,4.1-1.3c3.5,3.2,7.7,1,11.5,0.5
				c6.3-0.7,12.2,0.5,18.2,1.7c13.8,2.6,27.6,5.3,41,9.3c9.6,2.9,19.5,5.5,28.3,10.3c13.3,7.3,28,10.8,41.9,16.5
				c3.2,1.3,5.1,4,8.2,5.5c9.2,4.4,18.7,8.3,27.9,12.7c8.6,4.2,14.7,11.3,20.9,18.3c3.6,3.9,6.9,8,10,12.3c0.8,1.3,2.3,2.1,3.8,2.1
				c1,2.7,2.4,5.2,4.3,7.4c-8.4-6.4-17-12.7-25.8-18.5c-0.9-0.6-2-1.1-2.9-1.7c-2.8-1.9-6.2-2.7-7.9-6.4c-1-2.2-3.9-3.2-6.3-3.8
				c-11.1-2.7-20.1-9.6-29.9-14.7c-19.1-9.9-38.6-18.7-59-25.5c-11.9-3.9-24.3-5.8-36.5-8.8c-15-3.6-30.3-4.7-45.3-7.4
				c-16.7-3.1-33.4-2.8-50.3-2.3c-24.4,0.8-48.2,5-72.2,8.5c-5.9,0.7-11.6,2.1-17.1,4.2c-6.2,2.6-12.6,4.9-18.8,7.5
				c-7.4,3.1-14.8,6.2-22.4,7.1c-4.9,4.7-10.8,6.2-16.2,8.8c-8.4,4.1-17.6,6.9-25,12.7c-4.4,3.5-9,6.7-13.5,10
				c-8.8,6.4-17.8,12.5-26.3,19.3c-4.2,3.4-8.6,6.9-14.2,8.1c-2.4,0.5-6.8,6.3-6.7,8.5c-8.3,6.5-14.8,15.3-22.9,22.4
				c-1.4,1.2-2,3.4-3.4,4.4c-6.9,4.6-10.8,11.9-16.5,17.6c-1.7,1.6-3.5,3.2-3.8,5.9c-0.2,1.2-0.8,2.2-1.8,2.9
				c-5.2,4.1-8.2,9.9-11.6,15.4c-1.6,2.6-3.9,4.8-6,7.2c-2.8,3.2-5.5,6.5-5.9,10.9c-0.1,1-0.6,1.9-1.3,2.6c-0.4,0.5-1.2,0.8-1.3,1.3
				c-1.6,5.4-6.4,9.1-7.3,15c-0.9,6.1-4.3,11.2-7.3,16.4c-2.7,4.7-5.7,9.2-6.7,14.8c-1,5.9-3.7,11.4-5.3,17.2
				c-3.1,10.9-6.4,21.7-7.7,33c-1.1,10.1-2.3,20.2-3.4,30.3c-0.1,0.4-0.1,0.7-0.1,1.1c1.9,18.5-0.9,37.5,4.4,55.7
				c0.8,2.6-1.6,5.9,1.2,7.5c5,22.2,8.9,44.1,17.3,64.7c0.4,0.9-1.1,1.2-0.6,2.2c4.4,8.6,7.2,18,12.4,26.4
				c-6.3-7.3-12.6-14.7-18.7-21.9c-1.2-9.1-7.2-15.9-9.7-24.7c1.2-2.7,0.4-5.8-0.2-9c-1.8-9.1-4.6-18.1-5.1-27.5
				c-0.1-2.1-0.8-4.2-2.1-5.9c-1.2-1.9-1.9-4.2-1.8-6.5c-0.1-7.1-0.7-14.2-2-21.2c-2.9-14.5-3.9-29.3-3-44.1c0.8-15.6,3-31,6.5-46.2
				c0.8-3.5,1.8-7.4,4.7-10.3c1.6-1.6,1.5-4,1.3-6.1c-0.9-10.4,3.4-19.5,7.6-28.5c0.6-1.4,1.1-2.8,1.7-4.2
				c5.4-13,12.3-25.4,19.4-37.6l8.7-15.3C75.1,230.1,80.7,223.9,86,217z M37.6,497.7v0.3l-0.2-0.3H37.6c1,4.2,1,8.6,4.5,12.3
				C41.5,505.2,38.6,501.8,37.6,497.7z"/>
			<path id="Path_445" class="st5" d="M205.5,698.5c-1.3,1.5,0.3,1.7,1,2c3.5,1.6,7,3.7,10.9,4.1c3.7,0.4,6,2.9,9,4.4
				c9.7,4.7,19.8,8.5,30.2,11.3c6,1.6,11.6,4.4,17.5,6.6c0.9,0.4,1.9,0.6,2.9,0.8c13,2.5,26,5.4,39.3,6c2.7,0.1,5.4,1,8.3,1.5
				c1.1-1.6,2.3-3.1,4.3-1.2c1.3,1.2,2.6,0.3,3.9,0.2c9.9-1,19.9-1.3,29.7-3.1c1.9-0.4,3.8-0.1,5.5,0.7c0.6,1.1,0.6,2.4-0.1,3.4
				l-3.6,0.8c1,1.1,2.4,0.1,3.5,1.1c-7.2,2.6-14.7,6-21.9,4.1c-7-1.8-13.4-0.3-20-0.5c-5.1-0.1-10.1-0.4-15.2-1
				c-4-0.5-8.3-1.9-12.5-0.4c-3.1,1.1-6.2,0-9.1-0.8c-8.1-2.3-16.2-4.8-24.1-7.8c-3.6-1.3-7.2-1.3-10.8-2.3
				c-12.8-3.7-25.1-8.9-36.6-15.5c-6.5-3.6-13.1-7-19.5-10.7c-4.6-2.7-8.8-5.7-11.6-10.8s-7.5-9.1-11.7-14c3.6,0.5,5,3,6.6,5
				c2.8,3.5,6.9,4.9,10.5,7.3C196.4,692.8,200.9,695.6,205.5,698.5L205.5,698.5z"/>
			<path id="Path_446" class="st5" d="M307,699.3c8.8,2.8,17.9,4,26.8,5.8c11.6,2.3,22.6,6.7,34.2,9c4.3,0.9,8.7,1.2,13,2
				c7.6,1.5,15.1,2.6,22.5,5.6c6.3,2.5,13.7,2.5,20.8,1.8c7-0.7,14.1,0,20.8,2c2.6,0.7,5.4,0.9,8.1,0.8c6.8-0.3,13.7,0.8,20.5-1.2
				c3.2-1,6.7-1.2,10-0.4c2.2,0.5,4.5,0.5,6.6-0.2c0.5-1-0.9-0.5-0.8-1.5c4-0.6,8.1-1.7,12.3-1.5c8.9,0.4,17.3-1.3,25.8-3.9
				c7-2.2,14.1-4,21.3-5.3c9.5-1.8,18-6.2,27.1-8.9c14.4-4.3,27.1-12.3,40.1-19.6c4.8-2.7,9.7-5.1,14.8-7.2c3.1-1.2,4.6-3.7,6.9-5.5
				c5.3-4.2,10.7-8.2,16-12.5s9.7-9.7,15.3-13.8c1.6-1.2,2.5-3.2,5.1-3.3c1.9-0.1,2-2.3,2.7-3.9c2.1-0.3,4-1.5,5.2-3.2
				c3.8-4.9,9.1-8.5,12.6-13.4c5.3-7.4,12.3-13.5,16.4-21.7c1-2.1,2.2-4.4,5.2-4.8c0.5-0.1,1.1-1,1.4-1.7c3-7.1,8.7-12.5,12.3-19.1
				c1-1.6,1.5-3.4,1.4-5.3c-0.3-3.6,2.5-5.9,4.1-8.7c2.2-3.6,3.7-7.6,4.5-11.7c0.6-4,2.4-7.7,5.1-10.7c4.6-4.6,5.6-10.4,7.4-16.1
				c2.3-7.7,3.1-15.7,5.9-23.4c2.6-7.6,3.9-15.5,4-23.5c0.1-2.9,1.5-5.8,2.4-8.6c1.6-5,3.5-10.2,2.4-15.8c-0.3-1.8-2.5-2.5-2-5.4
				c1.4-2.9,0.6-7,0.7-10.9c0.2-10.2-0.2-20.4-0.7-30.5c-0.3-6,0.4-12-1.1-17.9c-1.9-7.3-2.3-14.8-5-22.2c-2.4-6.4-2.5-14-4.7-20.9
				c-2.1-6.5-5.1-12.9-6.7-19.4c-2.4-9.8-7.4-18.4-10-27.9c-1-3.5-3.8-5.4-5.4-8.4c-2.3-4.6-2.5-9.9-5.7-14.2
				c-1.3-1.8-3.3-3.2-4.5-6.2c2.2,1.4,4.1,3.2,5.7,5.3c5.9,7.2,11.7,14.5,17.8,21.4c6.6,7.1,11,16,12.7,25.6
				c0.4,2.3,2.5,3.6,3.3,5.8c1.6,5,2.8,10.1,3.4,15.3c1.4,9.8,6.1,18.7,8.2,28.4c1.1,4.2,1.7,8.6,1.8,13c-0.1,1.3-2,0.6-2.2,1.9
				c0,3.5,0.6,7,1.6,10.3c1.6-1.1,1.2-2.4,1.5-3.1c1.4,0.6,1.5,2,1.5,3.6c0.2,5.1,1.1,10.5,0.3,15.4c-1.3,7.5-0.4,14.9-1.7,22.3
				c-0.9,4.1-0.7,8.3,0.5,12.3c0.5,1.8,0.5,3.8,0,5.6c-0.5,2.7-0.3,5.5,0.6,8.1c-2,3.3-1.5,6.9-1.2,10.3c0.3,3.3-0.2,6.6-1.4,9.6
				c-0.5,1.1-1,1.4-2.2,0.4c-0.2,4.3-5,8.1-0.9,12.5c-0.7,6.6-3.5,12.8-5.7,19.1c-1.8,5.1-3.6,10.3-7.6,14.3
				c-1.3,1.3-1.5,3.2-1.8,4.9c-1.1,7.2-3.3,14.2-6.5,20.7c-2.9,5.8-5.2,11.8-8.8,17.2c-4.7,0.3-10.2,8.8-9.1,12.4
				c-2.9,12.5-10.7,21-18.7,29.4c-0.2,1.6-2,0.3-2.2,1.1c-2.7,5.9-6.7,10.3-10.4,14.8c-1.1,1.4-2.2,2.8-3.2,4.1
				c-4.3,5.4-8.1,11.2-15,13.9c-1.9,0.9-3.6,2.4-4.7,4.2c-3.8,5.5-9.4,9-14.5,12.9c-6,4.6-12.7,8.2-19.1,12.2
				c-0.9,0.4-1.8,0.9-2.6,1.4c-14.8,12.3-31.8,20.8-49.5,28c-2.9,1.2-5.7,2.5-8.3,3.7c-0.4,1.4-0.1,2.2,0.9,2.3c1.4,0,1.4-1,1-3
				c-18.2,10.1-38.4,16.1-59.1,17.5l-2.5-1.6c-2.8,0.6-1.4,3.3-2.9,4.7c-6-0.8-11.8,1-17.6,2.4s-11.5-0.6-17,1.7
				c-9.7-3.1-19.1,1.8-28.9,0.7c-12.2-1.5-24.6-2.3-36.9-2.2c-9.2,0.2-17.9-3.2-26.8-3.6c-15.8-3-31.3-7.7-47.6-10.1
				c-2.5-1.8-5.3-5.2-8.9-4.5c-8.4,1.7-15.1-3.7-22.8-4.8C311.6,703.3,308.9,701.7,307,699.3L307,699.3z"/>
		</g>
		<path id="Path_447" class="st1" d="M283.4,687c-6,0.2-11-2.4-16.3-4.8l1.2-2c2.7,0.8,4.5,3.3,7.3,4
			C278.3,685,280.9,685.9,283.4,687z"/>
		<path id="Path_448" class="st1" d="M307,699.3c-4.7,0.2-8-3.4-12.1-4.5l-0.3-0.2l0.1,0.2c1-1.6,2.3-1,3.6-0.5
			c3.5,1.3,7,2.4,10.6,3.4c-1.5-1.9-1.6,1.7-3,0.5C306,699.2,306.4,699.3,307,699.3L307,699.3z"/>
		<path id="Path_449" class="st1" d="M243.4,670.8l7.8,2.1C248.4,674,245.9,673.5,243.4,670.8z"/>
		<path id="Path_450" class="st1" d="M232.5,665c2.5,1,5.1,2.2,6.2,4.9c0.8-0.1,1.3-0.4,1.3-1.5C236.8,668.9,234.4,667.4,232.5,665z
			"/>
		<path id="Path_451" class="st1" d="M292.7,692.6c-1.8-0.4-3.3-0.3-4.7-1.4C290.5,689.6,290.5,689.6,292.7,692.6z"/>
		<path id="Path_452" class="st6" d="M205.5,698.4l0.7,0.1C205.9,698,205.7,698.2,205.5,698.4z"/>
		<path id="Path_453" class="st6" d="M312,697.8c-1,0.2-0.8,0.7-0.7,1.1C312.2,699.2,312.3,698.7,312,697.8z"/>
		<path id="Path_454" class="st1" d="M37.6,497.7c1,4.1,4,7.5,4.5,12.3C38.6,506.3,38.6,501.9,37.6,497.7z"/>
		<path id="Path_455" class="st1" d="M37.7,497.8l-0.3-0.1l0.2,0.3C37.6,497.9,37.6,497.8,37.7,497.8L37.7,497.8z"/>
	</g>
</g>
</svg>
