<svg id="logo" xmlns="http://www.w3.org/2000/svg" xmlns:xlink="http://www.w3.org/1999/xlink" width="800" height="800" viewBox="0 0 800 800">
  <defs>
    <linearGradient id="linear-gradient" x1="0.5" x2="0.5" y2="1" gradientUnits="objectBoundingBox">
      <stop offset="0" stop-color="#2a70d6"/>
      <stop offset="1" stop-color="#15386b"/>
    </linearGradient>
    <filter id="Path_441" x="380.572" y="253.229" width="146.409" height="436.861" filterUnits="userSpaceOnUse">
      <feOffset dy="17" input="SourceAlpha"/>
      <feGaussianBlur stdDeviation="3" result="blur"/>
      <feFlood flood-opacity="0.161"/>
      <feComposite operator="in" in2="blur"/>
      <feComposite in="SourceGraphic"/>
    </filter>
    <filter id="Path_442" x="553.186" y="248.68" width="109.877" height="434.687" filterUnits="userSpaceOnUse">
      <feOffset dy="17" input="SourceAlpha"/>
      <feGaussianBlur stdDeviation="3" result="blur-2"/>
      <feFlood flood-opacity="0.161"/>
      <feComposite operator="in" in2="blur-2"/>
      <feComposite in="SourceGraphic"/>
    </filter>
    <filter id="Path_443" x="124.438" y="116.499" width="269.749" height="593.079" filterUnits="userSpaceOnUse">
      <feOffset dy="17" input="SourceAlpha"/>
      <feGaussianBlur stdDeviation="3" result="blur-3"/>
      <feFlood flood-opacity="0.161"/>
      <feComposite operator="in" in2="blur-3"/>
      <feComposite in="SourceGraphic"/>
    </filter>
    <filter id="Path_444" x="2.974" y="55.329" width="701.303" height="521.716" filterUnits="userSpaceOnUse">
      <feOffset dy="17" input="SourceAlpha"/>
      <feGaussianBlur stdDeviation="3" result="blur-4"/>
      <feFlood flood-opacity="0.161"/>
      <feComposite operator="in" in2="blur-4"/>
      <feComposite in="SourceGraphic"/>
    </filter>
    <filter id="Path_445" x="144.742" y="665.894" width="248.217" height="110.352" filterUnits="userSpaceOnUse">
      <feOffset dy="17" input="SourceAlpha"/>
      <feGaussianBlur stdDeviation="3" result="blur-5"/>
      <feFlood flood-opacity="0.161"/>
      <feComposite operator="in" in2="blur-5"/>
      <feComposite in="SourceGraphic"/>
    </filter>
    <filter id="Path_446" x="287.918" y="244.448" width="507.558" height="519.175" filterUnits="userSpaceOnUse">
      <feOffset dy="17" input="SourceAlpha"/>
      <feGaussianBlur stdDeviation="3" result="blur-6"/>
      <feFlood flood-opacity="0.161"/>
      <feComposite operator="in" in2="blur-6"/>
      <feComposite in="SourceGraphic"/>
    </filter>
  </defs>
  <rect id="Rectangle_85" data-name="Rectangle 85" width="800" height="800" fill="url(#linear-gradient)"/>
  <g id="Group_1008" data-name="Group 1008">
    <g transform="matrix(1, 0, 0, 1, 0, 0)" filter="url(#Path_441)">
      <path id="Path_441-2" data-name="Path 441" d="M436.56,400.78c-3.5-3.4-10.3-4.2-15.7-6.2s-7.7-5.2-13.9-6.5c-4.1-4.4-8.2-8.8-12.3-13.4a2.64,2.64,0,0,1-.7-1.9c0-13.4-1.3-26.7.5-40,2.3-18.1,5.7-36.2,5.6-54.5v-18.6c4.8-.6,6.6.6,6.4,2.3-1.2,8.1,3.8,15.9,5,23.9,2.6,17.5,1.4,35.1,5.7,52.5.7,3-2.1,6.4,3,9.3,5.7-1.3,6-3.8,6.2-6.3a266.8,266.8,0,0,1,4.6-42.8c2.3-11.5,2.2-23.1,4.5-34.5a8.76,8.76,0,0,1,3.4-4.6c3.7,10.5,5.1,21,5.6,31.7-.4.5,2.7,43.8,5.9,58.4,4.8.5,4.8.5,9.2-.8a4,4,0,0,0,.7-1.8c-.2-10,3.5-19.7,3.7-29.7.2-11.1,3.1-22.1,4.2-33.2.6-6.4,1.9-12.8,2.2-19.3.1-1.7,1-3.2,4.1-4.4,2.8.7,1.9,2,1.9,3-.1,22.8,4.5,45.4,3.8,68.2a48.912,48.912,0,0,0,.5,10.8c.5,2.4,2.1,4.9,10,5,3-14.8,3.8-29.3,6.6-43.8s1.9-28.8,7-43.1c3-.8,4.9-.2,5.7,1.3a6.3,6.3,0,0,1,.7,3c2.1,29,3.5,58.1,3.2,87.1,0,5.7-.2,11.4.1,17.1.4,7-4.5,12.8-12.1,18.7-5.4,4.2-12.2,6.9-19.9,9.5-7,2.3-8.1,6.4-7.7,10,4.1,35.5.6,71.1,3.2,106.6,1.7,22.9-1.2,45.9,3.5,68.5,3.6,17.7.9,35.2,3.8,52.6,1.4,8.2-3.1,15.3-12.3,22-5.2,3.7-23.6,4.4-30.2,1-10.6-5.2-16.6-11.3-16.1-19,1-22.2.7-44.4,3.1-66.6,1.6-14.9-1.4-29.9,1.5-44.6,7-34.4.8-68.8,5.8-103.2C437.46,417,436.56,408.88,436.56,400.78Z" fill="#fff" stroke="#fff" stroke-miterlimit="10" stroke-width="8"/>
    </g>
    <g transform="matrix(1, 0, 0, 1, 0, 0)" filter="url(#Path_442)">
      <path id="Path_442-2" data-name="Path 442" d="M623.86,252.68h7.4c4,.7,4.3,2.6,5.5,4.3,3.1,4.9,7.1,9.4,7,14.9-.7,22.7,2.3,45.5-1.6,68.1s-1.6,44.6-2.6,66.9-2.8,45,.8,67.3.9,44.6,4.1,66.9c2.6,17.8,1.7,35.5,2.7,53.3.6,10.8,3,21.6,2.9,32.4-.1,6.2-1.2,12.3-6.2,18-5.6,6.3-15.9,9.1-28.6,8.5-10.8-.5-14.9-5-20.7-8.5-3.8-2.3-5.3-5.1-5.3-8.2-.1-19.8-.2-39.5,2.1-59.1.7-6-.5-12.2,1.4-18.1,6.4-20.4,2.1-41.1,5.3-61.6,2.3-14.6.9-29.4,2.8-44,.6-5.1-4.1-8.4-12-10.6-15.2-4.3-21.3-11.5-21.8-19.4-2.1-25.4-.3-50.9,3.6-76.1,1.6-10.6,2.9-21.5,8.4-32.1,2.3-4.3,1.7-8.8,3.4-13.4a203.7,203.7,0,0,1,10.6-25C596.66,269.08,611.26,258.08,623.86,252.68Z" fill="#fff" stroke="#fff" stroke-miterlimit="10" stroke-width="8"/>
    </g>
    <g transform="matrix(1, 0, 0, 1, 0, 0)" filter="url(#Path_443)">
      <path id="Path_443-2" data-name="Path 443" d="M276.36,380.48c19.5,9.8,42.7-4.6,59.1,20.5,1.6,3.4,1.9,8.2,3.3,12.9,3.1,10,.7,20-4,27.9-7.1,12.2-16.6,19.2-28.6,18.9-8-.1-16,0-24.2-.1-6-.1-9.5,3.6-8.8,12.1,1.5,19.5,1.6,39.1,4.9,58.3,1.6,9.9,2,20.2,2.4,30.2.9,20.2,5.3,39.4,7.2,59.4,3.2,34.8-21.3,57.5-44.8,41-7.3-5.1-12.8-12.9-13.8-26.1-2.1-27.1-5.8-53.8-8.4-80.7-1.7-19-2.9-38.2-3.9-57.4-.6-10.5-.6-21-3.5-30.8-4.4-2.9-8.6-2.3-13.5-1.7-11.1,1.2-22.5,3.2-33.7-2.7-8.6-4.6-15.8-17-16.1-30-.4-14.1,4.6-22.3,14.4-28.8,10.8-7.2,23.2-4.8,34.6-8.8,4.6-1.6,9.9-.2,13.6-4.9,2.7-28.6,3-56.9,4.1-85.1,1.2-31.2,5.8-62.1,17-89.7,11-27.2,24.4-53.8,46-67.1,25.3-15.5,51.9-22.6,78.3-2.6,10.5,7.9,13.1,24.2,8.5,38.6-5.1,16-14.6,20.2-26,20.9-4.9.2-9.9.7-14.8-.1-16.4-2.6-25.8,9.3-31,28.1a67.619,67.619,0,0,1-5.9,14.2c-10.1,17.1-11,37.8-12.8,57.6-1.5,17.3-4.4,34.6-3.1,52.3C273.66,364.68,273.46,373.08,276.36,380.48Z" fill="#f92b8c" stroke="#f92b8c" stroke-miterlimit="10" stroke-width="33"/>
    </g>
  </g>
  <g id="Group_1007" data-name="Group 1007" opacity="0.99">
    <g transform="matrix(1, 0, 0, 1, 0, 0)" filter="url(#Path_444)">
      <path id="Path_444-2" data-name="Path 444" d="M86,217c.3-.9-.9-1.8.3-3.4,4.7-3.7,6.3-11.4,13.8-13.7,2.9-4.2,5.9-8.9,9.2-13.1a96.789,96.789,0,0,1,12.6-13c6.4-5.3,11.9-11.7,18.6-16.7,3.6-2.7,7.1-5.8,10.8-8.2,8.7-5.7,15.9-13.2,24.3-19.4,12.1-8.9,24.7-17.2,39.1-21.9a90,90,0,0,0,17-7.8c7.4-4.3,14.8-8.6,23-11,10.4-2.9,20.6-6.6,31.2-9.1,12.2-2.8,24.1-7.4,36.5-9.2,17.9-2.5,35.7-6.8,54-5.9,1.9.1,3.8.3,5.6.5,4.1.4,8.1,1.4,12.2-.6,4.8-2.2,9.3.5,14.9,1.7-1.5-.8-1.7-.2-2.2.2,3.4,2,7.9.2,10.3,3.3,1.9.6,2.5-.9,4.1-1.3,3.5,3.2,7.7,1,11.5.5,6.3-.7,12.2.5,18.2,1.7,13.8,2.6,27.6,5.3,41,9.3,9.6,2.9,19.5,5.5,28.3,10.3,13.3,7.3,28,10.8,41.9,16.5,3.2,1.3,5.1,4,8.2,5.5,9.2,4.4,18.7,8.3,27.9,12.7,8.6,4.2,14.7,11.3,20.9,18.3a130.936,130.936,0,0,1,10,12.3,4.53,4.53,0,0,0,3.8,2.1,23.911,23.911,0,0,0,4.3,7.4c-8.4-6.4-17-12.7-25.8-18.5-.9-.6-2-1.1-2.9-1.7-2.8-1.9-6.2-2.7-7.9-6.4-1-2.2-3.9-3.2-6.3-3.8-11.1-2.7-20.1-9.6-29.9-14.7-19.1-9.9-38.6-18.7-59-25.5-11.9-3.9-24.3-5.8-36.5-8.8-15-3.6-30.3-4.7-45.3-7.4-16.7-3.1-33.4-2.8-50.3-2.3-24.4.8-48.2,5-72.2,8.5a71.3,71.3,0,0,0-17.1,4.2c-6.2,2.6-12.6,4.9-18.8,7.5-7.4,3.1-14.8,6.2-22.4,7.1-4.9,4.7-10.8,6.2-16.2,8.8-8.4,4.1-17.6,6.9-25,12.7-4.4,3.5-9,6.7-13.5,10-8.8,6.4-17.8,12.5-26.3,19.3-4.2,3.4-8.6,6.9-14.2,8.1-2.4.5-6.8,6.3-6.7,8.5-8.3,6.5-14.8,15.3-22.9,22.4-1.4,1.2-2,3.4-3.4,4.4-6.9,4.6-10.8,11.9-16.5,17.6-1.7,1.6-3.5,3.2-3.8,5.9a4.29,4.29,0,0,1-1.8,2.9c-5.2,4.1-8.2,9.9-11.6,15.4-1.6,2.6-3.9,4.8-6,7.2-2.8,3.2-5.5,6.5-5.9,10.9a4.32,4.32,0,0,1-1.3,2.6c-.4.5-1.2.8-1.3,1.3-1.6,5.4-6.4,9.1-7.3,15-.9,6.1-4.3,11.2-7.3,16.4-2.7,4.7-5.7,9.2-6.7,14.8-1,5.9-3.7,11.4-5.3,17.2-3.1,10.9-6.4,21.7-7.7,33-1.1,10.1-2.3,20.2-3.4,30.3a4.1,4.1,0,0,0-.1,1.1c1.9,18.5-.9,37.5,4.4,55.7.8,2.6-1.6,5.9,1.2,7.5,5,22.2,8.9,44.1,17.3,64.7.4.9-1.1,1.2-.6,2.2,4.4,8.6,7.2,18,12.4,26.4-6.3-7.3-12.6-14.7-18.7-21.9-1.2-9.1-7.2-15.9-9.7-24.7,1.2-2.7.4-5.8-.2-9-1.8-9.1-4.6-18.1-5.1-27.5a10.57,10.57,0,0,0-2.1-5.9,11.41,11.41,0,0,1-1.8-6.5,125.751,125.751,0,0,0-2-21.2,171.58,171.58,0,0,1-3-44.1,266.338,266.338,0,0,1,6.5-46.2c.8-3.5,1.8-7.4,4.7-10.3,1.6-1.6,1.5-4,1.3-6.1-.9-10.4,3.4-19.5,7.6-28.5.6-1.4,1.1-2.8,1.7-4.2C48,276.4,54.9,264,62,251.8l8.7-15.3C75.1,230.1,80.7,223.9,86,217ZM37.6,497.7v.3l-.2-.3h.2c1,4.2,1,8.6,4.5,12.3C41.5,505.2,38.6,501.8,37.6,497.7Z" fill="#fff" stroke="#fff" stroke-miterlimit="10" stroke-width="17"/>
    </g>
    <g transform="matrix(1, 0, 0, 1, 0, 0)" filter="url(#Path_445)">
      <path id="Path_445-2" data-name="Path 445" d="M205.5,698.5c-1.3,1.5.3,1.7,1,2,3.5,1.6,7,3.7,10.9,4.1,3.7.4,6,2.9,9,4.4a171.544,171.544,0,0,0,30.2,11.3c6,1.6,11.6,4.4,17.5,6.6a13.791,13.791,0,0,0,2.9.8c13,2.5,26,5.4,39.3,6,2.7.1,5.4,1,8.3,1.5,1.1-1.6,2.3-3.1,4.3-1.2,1.3,1.2,2.6.3,3.9.2,9.9-1,19.9-1.3,29.7-3.1a8.659,8.659,0,0,1,5.5.7,3.2,3.2,0,0,1-.1,3.4l-3.6.8c1,1.1,2.4.1,3.5,1.1-7.2,2.6-14.7,6-21.9,4.1-7-1.8-13.4-.3-20-.5-5.1-.1-10.1-.4-15.2-1-4-.5-8.3-1.9-12.5-.4-3.1,1.1-6.2,0-9.1-.8-8.1-2.3-16.2-4.8-24.1-7.8-3.6-1.3-7.2-1.3-10.8-2.3a166.333,166.333,0,0,1-36.6-15.5c-6.5-3.6-13.1-7-19.5-10.7-4.6-2.7-8.8-5.7-11.6-10.8s-7.5-9.1-11.7-14c3.6.5,5,3,6.6,5,2.8,3.5,6.9,4.9,10.5,7.3,4.5,3.1,9,5.9,13.6,8.8Z" fill="#fff" stroke="#fff" stroke-miterlimit="10" stroke-width="17"/>
    </g>
    <g transform="matrix(1, 0, 0, 1, 0, 0)" filter="url(#Path_446)">
      <path id="Path_446-2" data-name="Path 446" d="M307,699.3c8.8,2.8,17.9,4,26.8,5.8,11.6,2.3,22.6,6.7,34.2,9,4.3.9,8.7,1.2,13,2,7.6,1.5,15.1,2.6,22.5,5.6,6.3,2.5,13.7,2.5,20.8,1.8a54.089,54.089,0,0,1,20.8,2,27.549,27.549,0,0,0,8.1.8c6.8-.3,13.7.8,20.5-1.2a18.86,18.86,0,0,1,10-.4,12.31,12.31,0,0,0,6.6-.2c.5-1-.9-.5-.8-1.5,4-.6,8.1-1.7,12.3-1.5,8.9.4,17.3-1.3,25.8-3.9a174.414,174.414,0,0,1,21.3-5.3c9.5-1.8,18-6.2,27.1-8.9,14.4-4.3,27.1-12.3,40.1-19.6a134.746,134.746,0,0,1,14.8-7.2c3.1-1.2,4.6-3.7,6.9-5.5,5.3-4.2,10.7-8.2,16-12.5s9.7-9.7,15.3-13.8c1.6-1.2,2.5-3.2,5.1-3.3,1.9-.1,2-2.3,2.7-3.9a7.78,7.78,0,0,0,5.2-3.2c3.8-4.9,9.1-8.5,12.6-13.4,5.3-7.4,12.3-13.5,16.4-21.7,1-2.1,2.2-4.4,5.2-4.8.5-.1,1.1-1,1.4-1.7,3-7.1,8.7-12.5,12.3-19.1a9,9,0,0,0,1.4-5.3c-.3-3.6,2.5-5.9,4.1-8.7A35.52,35.52,0,0,0,740,548a20.57,20.57,0,0,1,5.1-10.7c4.6-4.6,5.6-10.4,7.4-16.1,2.3-7.7,3.1-15.7,5.9-23.4a75.289,75.289,0,0,0,4-23.5c.1-2.9,1.5-5.8,2.4-8.6,1.6-5,3.5-10.2,2.4-15.8-.3-1.8-2.5-2.5-2-5.4,1.4-2.9.6-7,.7-10.9.2-10.2-.2-20.4-.7-30.5-.3-6,.4-12-1.1-17.9-1.9-7.3-2.3-14.8-5-22.2-2.4-6.4-2.5-14-4.7-20.9-2.1-6.5-5.1-12.9-6.7-19.4-2.4-9.8-7.4-18.4-10-27.9-1-3.5-3.8-5.4-5.4-8.4-2.3-4.6-2.5-9.9-5.7-14.2-1.3-1.8-3.3-3.2-4.5-6.2a22.091,22.091,0,0,1,5.7,5.3c5.9,7.2,11.7,14.5,17.8,21.4a50.52,50.52,0,0,1,12.7,25.6c.4,2.3,2.5,3.6,3.3,5.8a80.5,80.5,0,0,1,3.4,15.3c1.4,9.8,6.1,18.7,8.2,28.4a56.594,56.594,0,0,1,1.8,13c-.1,1.3-2,.6-2.2,1.9a35.74,35.74,0,0,0,1.6,10.3c1.6-1.1,1.2-2.4,1.5-3.1,1.4.6,1.5,2,1.5,3.6.2,5.1,1.1,10.5.3,15.4-1.3,7.5-.4,14.9-1.7,22.3a24.419,24.419,0,0,0,.5,12.3,10.64,10.64,0,0,1,0,5.6,15.93,15.93,0,0,0,.6,8.1c-2,3.3-1.5,6.9-1.2,10.3a20.819,20.819,0,0,1-1.4,9.6c-.5,1.1-1,1.4-2.2.4-.2,4.3-5,8.1-.9,12.5-.7,6.6-3.5,12.8-5.7,19.1-1.8,5.1-3.6,10.3-7.6,14.3-1.3,1.3-1.5,3.2-1.8,4.9a71.311,71.311,0,0,1-6.5,20.7c-2.9,5.8-5.2,11.8-8.8,17.2-4.7.3-10.2,8.8-9.1,12.4-2.9,12.5-10.7,21-18.7,29.4-.2,1.6-2,.3-2.2,1.1-2.7,5.9-6.7,10.3-10.4,14.8-1.1,1.4-2.2,2.8-3.2,4.1-4.3,5.4-8.1,11.2-15,13.9a11.22,11.22,0,0,0-4.7,4.2c-3.8,5.5-9.4,9-14.5,12.9-6,4.6-12.7,8.2-19.1,12.2a21.472,21.472,0,0,0-2.6,1.4c-14.8,12.3-31.8,20.8-49.5,28-2.9,1.2-5.7,2.5-8.3,3.7-.4,1.4-.1,2.2.9,2.3,1.4,0,1.4-1,1-3a141.6,141.6,0,0,1-59.1,17.5l-2.5-1.6c-2.8.6-1.4,3.3-2.9,4.7-6-.8-11.8,1-17.6,2.4s-11.5-.6-17,1.7c-9.7-3.1-19.1,1.8-28.9.7a284.4,284.4,0,0,0-36.9-2.2c-9.2.2-17.9-3.2-26.8-3.6-15.8-3-31.3-7.7-47.6-10.1-2.5-1.8-5.3-5.2-8.9-4.5-8.4,1.7-15.1-3.7-22.8-4.8a12.26,12.26,0,0,1-7.6-4.5Z" fill="#fff" stroke="#fff" stroke-miterlimit="10" stroke-width="17"/>
    </g>
  </g>
  <path id="Path_452" data-name="Path 452" d="M205.5,698.4l.7.1C205.9,698,205.7,698.2,205.5,698.4Z" fill="#f0f7fb"/>
  <path id="Path_453" data-name="Path 453" d="M312,697.8c-1,.2-.8.7-.7,1.1C312.2,699.2,312.3,698.7,312,697.8Z" fill="#f0f7fb"/>
  <path id="Path_455" data-name="Path 455" d="M37.7,497.8l-.3-.1.2.3c0-.1,0-.2.1-.2Z" fill="#2a70d6"/>
</svg>
