<svg xmlns="http://www.w3.org/2000/svg" viewBox="0 0 602.9 667.54"><defs><style>.cls-1{fill:#e23e81;}.cls-2{fill:#df4081;}.cls-3{fill:#e13e81;}</style></defs><title>Food-E-Call-logo</title><g id="Layer_2" data-name="Layer 2"><g id="Layer_1-2" data-name="Layer 1"><path class="cls-1" d="M171.75,460c-7.59,12.56-15.1,24.71-22.31,37-2.31,4-5.39,5.67-9.74,6.5-7,1.34-11.88,7.9-12.84,14.76-.8,5.69-1.53,11.41-2.33,17.11-.84,6-1.48,12-2,18-.77,9.09-1.51,18.19-1.91,27.29a12.79,12.79,0,0,0,5.4,11,20.51,20.51,0,0,0,7.36,4c2.35.57,3.36,2.32,4,4.29,2.63,8.37,5.14,16.79,7.76,25.17.91,2.94,3.49,4.14,6.13,4.73,1.94.43,3.1-.57,2.3-2.86q-5-14.32-9.84-28.64c-.78-2.29-.48-3.6,2.6-3.63,7.81-.07,11.2,2.26,13.11,9.45,2.19,8.23,5.25,16.23,7.9,24.34.34,1,1,2.25.71,3.17-1.44,5,2.56,5.51,5.36,6.36,8.74,2.69,17.5,5.47,26.43,7.25,9.71,1.94,19.45,3.72,29.31,5.06a308.79,308.79,0,0,0,53.68,2.65c9.93-.39,19.86-1.37,29.77-2.65,13.75-1.77,27.19-4.86,40.71-7.72,1.47-.31,3.24-.9,3.54-2.33.35-1.66-1.69-1.63-2.76-2.18a9.87,9.87,0,0,1-5.71-9.54q.06-66.37,0-132.77c0-7.58-3.85-10.21-10.84-7.43a2.35,2.35,0,0,1-2.6-.39c1.37-2.86,4.28-4.05,6.73-5.29,8.35-4.19,17.15-6.51,26.63-4.58C375,479.43,379,484.34,379,491.41V629.5c0,5.26,0,5.27,4.9,3.63,13.64-4.57,26.53-10.82,39.22-17.54a295.19,295.19,0,0,0,41.29-26.15c7.84-6,15.58-12.13,22.87-18.75a306.36,306.36,0,0,0,22.36-22.22c7.58-8.45,14.83-17.17,21.61-26.29A337.82,337.82,0,0,0,556,483.39c4.72-8.56,8.78-17.44,12.73-26.37a318,318,0,0,0,21.17-70.83c2.35-13.89,3.7-27.83,4.7-41.88,1-13.62.44-27.14-.5-40.61a286.36,286.36,0,0,0-7.34-48A355.56,355.56,0,0,0,564,190.26a332.07,332.07,0,0,0-39.15-63.52,291.23,291.23,0,0,0-30.71-33.92,352.67,352.67,0,0,0-60-45.45,304.6,304.6,0,0,0-33.38-17.16A328.36,328.36,0,0,0,344,10.86a297.51,297.51,0,0,0-36.53-6.61c-10-1.07-20-1.35-29.95-2.36-14-1.42-27.79.44-41.6,1.25-9.1.54-18.22,2.48-27.3,4-15.06,2.45-29.65,6.53-44.14,11A262.17,262.17,0,0,0,131.69,31a322.87,322.87,0,0,0-29.77,15.33c-1.31.77-3.17,1.67-2.88,3,.46,2,2.7,1.74,4.44,1.69a177.66,177.66,0,0,1,29.34,1.57c2.52.34,5.63,1,6.08,4,.54,3.59.77,7.47-2.57,10.33-1.63,1.4-2.9.2-4-.57-7.22-5.16-15.55-6.84-24.12-7.76-6-.65-12-1.16-18.09-1.48-4.51-.24-5.09.45-5.09,4.77v58.92s1.55,4.65,4.91,4.62c11.12-.12,22.25.15,33.37-.15,4.06-.11,3.15,2.22,3.31,4.47.19,2.57-.09,4-3.45,4-10.74-.25-21.49-.1-32.24-.09-5.35,0-4.9,5.45-4.9,5.45v53.28a15.53,15.53,0,0,1-1.71,8c-3,4.85-12,8.29-18,6.84-4.75-1.11-9.88-1.4-12.48-6.73a18.75,18.75,0,0,1-1.8-8.4V138.43s-.14-5-4.58-5a68.88,68.88,0,0,0-7.87,0c-3.42.37-3.63-2-3.62-4.14s.14-4.5,3.57-4.2c3,.26,6,0,9,.06,2.64,0,4.5-3.84,4.5-3.84V62.83c0-2.41-1.13-4.14-3.57-3.57-8.77,2-17.56,4.13-25.3,9.05C18.46,71.93,13.35,76.05,11.5,83a14.81,14.81,0,0,0,.76,9.71c1.56,3.77,7.47,5.25,11.09,3,1.66-1,3.19-2.27,4.88-3.27,3-1.8,6.81-.48,8.67,2.51,4.65,7.45-.31,19.13-10.24,21.25-7,1.49-12.54.2-18.42-3.15C2.71,110-.91,98.18.2,92.6,1.26,87.3,2,82,5.19,77.42,12.4,67.1,22.75,61.29,34.51,57.69a153.16,153.16,0,0,1,41-6.21c5.31-.15,10.64-.39,16-.53A10.74,10.74,0,0,0,97,49.23a331,331,0,0,1,59.85-29A346.62,346.62,0,0,1,194.56,8.67C205,6.18,215.65,4.52,226.3,2.91,245.14.07,264-.24,283,.13a277.08,277.08,0,0,1,37.83,3.48,340.56,340.56,0,0,1,41.89,9.11,329.49,329.49,0,0,1,99.74,47.77,351.56,351.56,0,0,1,28.61,22.58c7.48,6.59,14.43,13.71,21.34,20.83A286.28,286.28,0,0,1,540.57,138a344.13,344.13,0,0,1,27.93,46.53,331.52,331.52,0,0,1,23.6,63Q596.7,265,599.55,283c1.29,8.23,1.86,16.63,2.57,24.93,1.23,14.43.7,28.85.46,43.25-.14,8.54-1.41,17.11-2.46,25.66-.9,7.31-2.5,14.48-3.45,21.77-.65,4.94-2.28,9.74-3.42,14.62a323.46,323.46,0,0,1-29.35,76.53A311.89,311.89,0,0,1,543,524.16a352.6,352.6,0,0,1-25.35,32.06c-6.09,6.75-12.46,13.19-18.95,19.48a285.73,285.73,0,0,1-25.58,21.8,333.62,333.62,0,0,1-32.24,21.92,379.12,379.12,0,0,1-35.61,18.67,364.3,364.3,0,0,1-43.52,16.06,277.24,277.24,0,0,1-27.41,6.56c-7.56,1.51-15.16,2.72-22.75,4-4.71.79-9.51,1.35-14.25,1.73a395.91,395.91,0,0,1-47.73.7,330.46,330.46,0,0,1-40.89-4.83,311.51,311.51,0,0,1-52.38-13.73c-10.46-3.72-21-7.25-31.59-10.38s-15.57-11.42-19.95-20.26c-4.24-8.45-6.69-17.54-8.63-26.76-1.35-6.39-1.81-12.87-2.67-19.3-.93-6.91-.61-13.87-.8-20.81-.31-10.47,2-20.48,5-30.39,5.19-17.68,12.65-34.3,23.5-49.3a66.89,66.89,0,0,1,12.79-13.72c4.86-3.82,11-4,17-3.52C158,454.68,164.84,456.91,171.75,460Z"/><path class="cls-1" d="M239,305.39c0,9.75.16,19.5-.08,29.24-.09,3.61,1.16,4.42,4.52,4.37,11.75-.18,23.5.05,35.24-.15,3.43-.06,3.84,1.42,3.89,4.26.06,3-.75,4.18-4,4.13-11.87-.18-23.75,0-35.62-.14-3.18,0-4.05,1-4,4.1.14,12.75.08,25.5,0,38.24,0,9.95,6.43,16.56,15.84,17.67,12.43,1.47,24-1.66,35-7.56,1.38-.75,3-1.2,4.13-2.24,2.08-2,2.87-.06,4.06,1,1.78,1.54-.12,2.14-.81,2.78a70,70,0,0,1-35.57,18,82.8,82.8,0,0,1-28.48-.21,43.37,43.37,0,0,1-15-5.64c-8-4.8-11.74-12.25-12-21.15-.4-13.61-.18-27.24,0-40.86,0-3.05-.78-4.35-4-4.11s-6.5,0-9.75.05c-4.16,0-2.45-3.15-2.78-5.18s.13-3.28,2.7-3.1c3.36.22,6.75,0,10.12.05,2.46,0,3.66-1.15,3.66-3.63V275.7c0-2.34-.85-3.15-3.39-2.84-13,1.6-24.71,5.87-34.06,15.41-4.75,4.86-6,13.35-3.12,18,2.68,4.28,6.92,4.89,11,2.44a30,30,0,0,0,4.27-2.86c4.19-3.68,9.77.83,10.31,5.57,1.41,12.25-5.48,18.22-17.12,18.64-10.34.38-19.44-6.74-20.54-18.3-1.32-13.92,4-24.28,15.17-32.08,8.56-6,18.28-9,28.34-11.39,20.37-4.9,41.08-4.89,61.74-4.14,10.16.36,20.53.11,30.54,2.76,3.38.89,4.73,3.37,3.73,8.36-.46,2.3-.82,5.42-4.58,5.16a4.2,4.2,0,0,1-2.41-.71c-7.31-5.46-16-6.28-24.64-7.65-6.22-1-12.43-.32-18.62-.69-2.77-.16-3.73.83-3.69,3.63C239.09,285.12,239,295.27,239,305.39Z"/><path class="cls-1" d="M276,487.52a38.5,38.5,0,0,1,15.3-8.52c7.48-2.34,15-3.09,22.52,0,5.45,2.25,7.16,6.71,7.19,12,.1,22.57,0,45.14,0,67.71v70.76c0,7.15-3.37,11.17-10.62,11.63-4.42.29-8.9.67-13.31-1.22-5.05-2.16-7.07-4.5-7.07-10V495.15c0-7.36-4-10-10.92-7.12A3,3,0,0,1,276,487.52Z"/><path class="cls-2" d="M337.28,353.18c7.74,0,15.47.1,23.2-.05,2.48-.05,3.18.71,3.12,3.14-.16,6.11-.11,12.23,0,18.34,0,1.89-.47,2.6-2.5,2.59q-23.76-.1-47.53,0c-2,0-2.57-.62-2.54-2.56.1-6.24.17-12.48,0-18.71-.07-2.52,1-2.81,3.09-2.78C321.81,353.24,329.55,353.18,337.28,353.18Z"/><path class="cls-1" d="M114.88,377.12c-7.48,0-15-.15-22.45.08-2.93.09-3.54-.89-3.45-3.59.2-6,.13-12,0-18,0-2,.61-2.54,2.56-2.54q23.38.1,46.78,0c1.64,0,2.5.3,2.48,2.23-.1,6.49-.12,13,0,19.46,0,2.2-1.05,2.35-2.76,2.34C130.35,377.12,122.62,377.17,114.88,377.12Z"/><path class="cls-3" d="M184.32,474.78c.08,1.61-.75,2.81-1.56,4.08-5.26,8.27-10.58,16.51-15.63,24.92-2.14,3.56-5.39,3.16-8.6,3.33a16.62,16.62,0,0,1-2.23-.18c-4.36-.41-5.12-1.92-2.92-5.6,7.18-12,14.91-23.63,22.5-35.36,1.42-2.2,2.08-1.74,3.51-.34C182,468.19,184.07,471,184.32,474.78Z"/><path class="cls-1" d="M176,609.62v-.54a.7.7,0,0,0,.25,0,.46.46,0,0,0,.28-.39c0-1.11,0-2.23,0-3.34.09,0,.19,0,.25,0A.45.45,0,0,0,177,605c0-.76,0-1.53,0-2.29a.33.33,0,0,0,.42-.16.42.42,0,0,0,.1-.2c0-.41,0-.82,0-1.24a.34.34,0,0,0,.43-.16c0-.06.1-.13.1-.2,0-.41,0-.82,0-1.24a.35.35,0,0,0,.42-.15c0-.06.11-.12.11-.19,0-.24,0-.48,0-.72a.35.35,0,0,0,.45-.19.51.51,0,0,0,.07-.23.52.52,0,0,1,.12-.48c.26-.25.5-.49.42-.89a6.22,6.22,0,0,1,.89-1,1,1,0,0,1,.18-.17v-.82c.08,0,.2,0,.24,0a13.62,13.62,0,0,0,1.36-1.38v-.75c.08,0,.19,0,.23,0,.29-.27.56-.55.83-.83,0-.05,0-.16,0-.24a.37.37,0,0,0,.4-.13.4.4,0,0,0,.13-.4c.08,0,.19,0,.24,0,.46-.45.91-.9,1.35-1.36,0,0,0-.16,0-.24h.8l1.6-1.6.56,0,.55-.55c.06-.07.13-.12.18-.19.21-.33.57-.31.88-.35a8.61,8.61,0,0,0,.74-.74c.24-.32.59-.24.84-.33.29-.28.54-.51.78-.77,0,0,0-.16,0-.25h.72a.66.66,0,0,0,.2-.11.35.35,0,0,0,.15-.42c.24,0,.48,0,.72,0,.07,0,.13-.07.19-.11a.33.33,0,0,0,.16-.42h.72a.62.62,0,0,0,.19-.11.35.35,0,0,0,.15-.42h.75a1.15,1.15,0,0,0,.19-.14c.3-.27.3-.27.83-.39a.57.57,0,0,0,.36-.29.68.68,0,0,0,0-.25h1.27c.33-.19.53-.65,1-.54.06,0,.16-.05.21-.11a1,1,0,0,1,.84-.42c.15,0,.29-.12.37-.28s0-.16,0-.25h1.32l.58-.54h1l.63-.52c.4.08.65-.16.89-.43a.35.35,0,0,1,.22-.1h.8a.47.47,0,0,0,.41-.27c0-.07,0-.17,0-.26.33,0,.67,0,1,0a.71.71,0,0,0,.63-.31.75.75,0,0,1,.66-.24.47.47,0,0,0,.37-.28c0-.06,0-.16,0-.25.34,0,.67,0,1,0a.66.66,0,0,0,.62-.31c.18-.23.41-.22.66-.24a.45.45,0,0,0,.37-.27c0-.07,0-.17,0-.25h1.29l.57-.51a5.51,5.51,0,0,1,.71,0,.72.72,0,0,0,.65-.29.75.75,0,0,1,.66-.26.44.44,0,0,0,.38-.27.69.69,0,0,0,0-.25h1.31l.58-.54h.5l.57-.53.54,0,.18-.19a1.32,1.32,0,0,1,.89-.37c.26-.25.52-.49.75-.75,0,0,0-.17,0-.26h.8c.62-.62,1.25-1.24,1.86-1.87,0,0,0-.17,0-.26a.4.4,0,0,0,.4-.13.42.42,0,0,0,.13-.41.46.46,0,0,0,.53-.53c.08,0,.2,0,.24,0a14.75,14.75,0,0,0,1.36-1.38v-.75c.09,0,.21,0,.26,0,.26-.24.51-.49.76-.75a1.38,1.38,0,0,1,.06-.5,4.53,4.53,0,0,1,.5-.62l0-.5.54-.57v-1.32c.08,0,.18,0,.25,0a.49.49,0,0,0,.28-.38,2.77,2.77,0,0,1,.07-1c.07-.15.24-.24.35-.37a.39.39,0,0,0,.11-.21v-3.36c.09,0,.19,0,.26,0a.45.45,0,0,0,.27-.4q0-.39,0-.78a.47.47,0,0,0-.27-.41.75.75,0,0,0-.26,0v-3.36a.29.29,0,0,0-.11-.21,1.06,1.06,0,0,1-.42-1.12,1,1,0,0,0,0-.25.53.53,0,0,0-.28-.39c-.07,0-.17,0-.25,0,0-.24,0-.48,0-.72,0-.06-.07-.13-.11-.19a.35.35,0,0,0-.42-.15v-.75c-.2-.33-.65-.53-.53-1a3.48,3.48,0,0,0-.82-.89s-.17,0-.25,0a.46.46,0,0,0-.53-.53v-.79l-2.43-2.4h-.48l-1.11-1.08h-.78c0-.09,0-.19,0-.26a.45.45,0,0,0-.4-.27.72.72,0,0,1-.67-.28.46.46,0,0,0-.42-.25c-.41.06-.6-.26-.85-.48a1.7,1.7,0,0,0-.5,0,1.05,1.05,0,0,1-1.09-.5,13.28,13.28,0,0,0-2.09,0,1.17,1.17,0,0,1-1.1-.48.82.82,0,0,0-.25-.06q-1.44,0-2.88,0a.45.45,0,0,0-.4.27c0,.07,0,.17,0,.26h-2.81a.45.45,0,0,0-.38.28c0,.07,0,.17,0,.25h-1.32l-.58.55h-1l-.61.54h-1l-.21.22a.77.77,0,0,1-.68.3.43.43,0,0,0-.41.26c0,.07,0,.18,0,.26h-.73c-.06,0-.13.07-.19.11a.35.35,0,0,0-.15.42h-.72a.66.66,0,0,0-.2.11.35.35,0,0,0-.15.42h-.74a4.45,4.45,0,0,0-.85.83s0,.16,0,.24-.19,0-.24,0a4.18,4.18,0,0,0-.82.86v.74a.34.34,0,0,0-.42.15c0,.06-.11.13-.11.19,0,.24,0,.48,0,.72-.09,0-.19,0-.26,0a.48.48,0,0,0-.27.4q0,.66,0,1.32a.48.48,0,0,0,.27.4c.07,0,.17,0,.26,0v.74a4.38,4.38,0,0,0,.86.86h.74v.31l.7.65c.06,0,.15.11.21.1.5-.11.69.36,1,.54h1.26a.35.35,0,0,0,.15.42.66.66,0,0,0,.2.11h.72c0,.08,0,.19,0,.24a4.82,4.82,0,0,0,.86.83h.74a.46.46,0,0,0,.53.53.4.4,0,0,0,.13.4.38.38,0,0,0,.41.13v.75a2.14,2.14,0,0,0,.13.19c.28.3.27.3.4.83a.52.52,0,0,0,.29.36.63.63,0,0,0,.24,0v4.8a.34.34,0,0,0-.43.16c0,.06-.1.13-.1.2,0,.41,0,.83,0,1.24a.35.35,0,0,0-.42.15c0,.06-.11.13-.11.19,0,.24,0,.48,0,.72a.33.33,0,0,0-.42.16c0,.06-.11.12-.11.19,0,.24,0,.48,0,.72a.4.4,0,0,0-.4.13.36.36,0,0,0-.13.4.42.42,0,0,0-.41.13.39.39,0,0,0-.12.41h-.74a4.18,4.18,0,0,0-.86.82s0,.16,0,.24h-.73c-.06,0-.13.07-.19.11a.35.35,0,0,0-.15.42h-1.24c-.07,0-.13.06-.2.1a.34.34,0,0,0-.16.43h-6.59a1,1,0,0,1-1.11-.52h-1.05l-.59-.54h-.5l-.57-.54h-.45l-2.49-2.48V564a1.23,1.23,0,0,0-.19-.2c-.34-.22-.34-.56-.36-.89a2.19,2.19,0,0,1-.5-.6c.08-.4-.18-.64-.44-.88a.34.34,0,0,1-.09-.22c0-.26,0-.53,0-.79a.47.47,0,0,0-.27-.41.75.75,0,0,0-.26,0c0-.59,0-1.17,0-1.76a.49.49,0,0,0-.28-.37.69.69,0,0,0-.25,0v-6.4a.7.7,0,0,0,.25,0,.49.49,0,0,0,.28-.37c0-.59,0-1.17,0-1.76a.35.35,0,0,0,.43-.16c0-.07.1-.14.1-.2,0-.42,0-.83,0-1.24a.33.33,0,0,0,.41-.15c0-.06.11-.13.11-.19,0-.24,0-.49,0-.73a.35.35,0,0,0,.42-.15.52.52,0,0,0,.11-.19c0-.24,0-.48,0-.72.09,0,.21,0,.26,0,.26-.24.5-.49.76-.75a1.71,1.71,0,0,1,.06-.5,1.27,1.27,0,0,1,.31-.39c.25-.26.5-.5.75-.74v-.81a.4.4,0,0,0,.4-.13.42.42,0,0,0,.13-.41.46.46,0,0,0,.53-.53.38.38,0,0,0,.41-.13.4.4,0,0,0,.13-.4.4.4,0,0,0,.4-.13.42.42,0,0,0,.13-.41h.75a12.63,12.63,0,0,0,1.38-1.36s0-.15,0-.24h.74a4.76,4.76,0,0,0,.86-.82c0-.05,0-.16,0-.24.24,0,.48,0,.72,0,.07,0,.13-.07.2-.11a.34.34,0,0,0,.15-.42h.72c.07,0,.13-.07.19-.11a.34.34,0,0,0,.16-.42H197a.62.62,0,0,0,.19-.11.35.35,0,0,0,.15-.42c.34,0,.67,0,1,0a.66.66,0,0,0,.62-.31.78.78,0,0,1,.66-.23.46.46,0,0,0,.37-.28c0-.07,0-.17,0-.25h1.23a.71.71,0,0,0,.21-.11.34.34,0,0,0,.16-.42h1.23a.5.5,0,0,0,.21-.1.35.35,0,0,0,.16-.43h1.76a.45.45,0,0,0,.37-.28.7.7,0,0,0,0-.25h1.76a.49.49,0,0,0,.37-.28.69.69,0,0,0,0-.25c.58,0,1.17,0,1.75,0a.44.44,0,0,0,.37-.28c0-.06,0-.16,0-.25h2.81a.44.44,0,0,0,.38-.28c0-.06,0-.16,0-.25h4.4a.45.45,0,0,0,.39-.28c0-.06,0-.17,0-.25h8c0,.08,0,.19,0,.25a.48.48,0,0,0,.4.28h4.4a.7.7,0,0,0,0,.25.48.48,0,0,0,.38.28H233c0,.09,0,.19,0,.25a.45.45,0,0,0,.38.28h2.28c0,.08,0,.18,0,.25a.49.49,0,0,0,.38.28c.33,0,.69-.08,1,.07s.34.36.57.46h1.79a.33.33,0,0,0,.16.43.42.42,0,0,0,.2.1H241a.7.7,0,0,0,0,.25c.08.15.22.29.37.27a1,1,0,0,1,.84.42.67.67,0,0,0,.2.12h1.25a.35.35,0,0,0,.17.44c.07,0,.15.1.21.09a.92.92,0,0,1,.84.42c.05.06.15.13.21.11.5-.11.7.35,1,.54h1.28v.32c.2.19.44.42.69.64.05.05.14.12.2.1.5-.1.7.34,1,.54h.75c0,.09,0,.2,0,.24a4.45,4.45,0,0,0,.85.83h.74a.4.4,0,0,0,.13.4.38.38,0,0,0,.41.13c0,.09,0,.21,0,.26q2,2,4,4s.17,0,.25,0v.76a5.48,5.48,0,0,0,.83.84c.05,0,.16,0,.24,0v.73c.1.13.19.25.3.37a6.15,6.15,0,0,0,.53.49s.15,0,.24,0c0,.24,0,.48,0,.72,0,.07.07.13.11.2a.35.35,0,0,0,.42.15c0,.33,0,.67,0,1a.71.71,0,0,0,.31.63c.23.17.22.41.24.66a.47.47,0,0,0,.28.37c.06,0,.16,0,.25,0,0,.42,0,.83,0,1.24a.42.42,0,0,0,.1.2.34.34,0,0,0,.43.16c0,.59,0,1.18,0,1.76a.48.48,0,0,0,.28.37c.07,0,.17,0,.25,0,0,1.11,0,2.22,0,3.34a.44.44,0,0,0,.27.38c.07,0,.17,0,.26,0v63c0,.71,0,1.42,0,2.13a.45.45,0,0,0,.27.41c.06,0,.17,0,.26,0v1.24a3.65,3.65,0,0,0,.82.89c.05,0,.16,0,.25,0a.39.39,0,0,0,.12.41.42.42,0,0,0,.41.13c0,.08,0,.21,0,.25.24.26.5.5.76.76a1.08,1.08,0,0,0,.21,0h2.89a.46.46,0,0,0,.4-.27c0-.07,0-.17,0-.26H269l.58-.54h.49c.64-.63,1.26-1.24,1.87-1.87.05,0,0-.17,0-.26.33,0,.67,0,1,0a.66.66,0,0,1,.63.31c.18.23.41.22.66.23a.47.47,0,0,1,.37.28.69.69,0,0,1,0,.25c-.09,0-.2,0-.24,0a4.45,4.45,0,0,0-.83.85v.74c-.08,0-.2,0-.24,0a13.53,13.53,0,0,0-1.36,1.37v.75a.42.42,0,0,0-.41.13.39.39,0,0,0-.12.41.38.38,0,0,0-.41.13.4.4,0,0,0-.13.4c-.08,0-.19,0-.23,0-.47.44-.92.89-1.36,1.35,0,.05,0,.16,0,.24a.4.4,0,0,0-.4.13.36.36,0,0,0-.13.4.42.42,0,0,0-.41.13.39.39,0,0,0-.12.41h-.75a12.66,12.66,0,0,0-1.38,1.36s0,.16,0,.24h-.74a4.4,4.4,0,0,0-.85.82c0,.05,0,.16,0,.24h-.79l-.56.54-.51,0-.61.51c-.41-.08-.65.16-.89.43a.61.61,0,0,1-.49.11.44.44,0,0,0-.41.27c0,.06,0,.17,0,.26h-1.3l-.55.5a2.69,2.69,0,0,1-.49,0,1,1,0,0,0-1.06.48,5,5,0,0,1-1,.06.46.46,0,0,0-.38.27.75.75,0,0,0,0,.26h-5.82c-.79,0-1.59,0-2.38,0a1.18,1.18,0,0,1-1.11-.53h-1.58L244,639h-1l-.57-.54H241a.34.34,0,0,0-.16-.42c-.06,0-.12-.11-.19-.11H240v-.26l-.75-.75c-.23-.1-.51,0-.72-.18L234.76,633c-.2-.21,0-.51-.19-.72s-.4-.33-.46-.6a1.13,1.13,0,0,1,0-.26.49.49,0,0,0-.27-.41c-.07,0-.17,0-.26,0v-1.32l-.54-.58v-1a1.19,1.19,0,0,0-.2-.19,1,1,0,0,1-.36-.9l-.76-.76h-2.07l-2.47,2.45v.74a.42.42,0,0,0-.41.13.37.37,0,0,0-.12.4.47.47,0,0,0-.54.54.46.46,0,0,0-.53.53.42.42,0,0,0-.41.13.37.37,0,0,0-.12.4h-.81l-1.86,1.88s0,.17,0,.26h-.82a8.56,8.56,0,0,0-.72.75,1.17,1.17,0,0,1-.9.36c-.26.26-.52.5-.76.76,0,0,0,.17,0,.26h-.77l-.55.51c-.3,0-.64,0-.85.32s-.41.23-.65.24a.47.47,0,0,0-.38.28.7.7,0,0,0,0,.25c-.24,0-.48,0-.72,0-.07,0-.13.07-.2.11a.33.33,0,0,0-.15.41h-1.3l-.55.51a1.91,1.91,0,0,1-.48,0,1,1,0,0,0-1.06.48,4.44,4.44,0,0,1-1,.06.49.49,0,0,0-.38.28c0,.07,0,.17,0,.25h-2.28a.45.45,0,0,0-.38.28c0,.06,0,.16,0,.25H196.77c0-.09,0-.19,0-.25a.45.45,0,0,0-.38-.28H194.1a.7.7,0,0,0,0-.25.44.44,0,0,0-.38-.27c-.33,0-.66,0-.95,0l-.58-.52H190.9a.75.75,0,0,0,0-.26.46.46,0,0,0-.41-.27.7.7,0,0,1-.67-.29.49.49,0,0,0-.43-.25c-.42.07-.6-.28-.86-.5a1,1,0,0,1-.89-.36,1.89,1.89,0,0,0-.2-.2h-.5l-.2-.17-.35-.37h-.82c0-.09,0-.21,0-.26l-4.26-4.24v-.57a7.37,7.37,0,0,0-.75-.73,1.14,1.14,0,0,1-.35-.9,2.19,2.19,0,0,1-.5-.6c.08-.4-.18-.63-.43-.87a.63.63,0,0,1-.11-.48.46.46,0,0,0-.26-.41c-.07,0-.18,0-.26,0,0-.24,0-.48,0-.72,0-.06-.07-.13-.11-.19a.35.35,0,0,0-.42-.15c0-.41,0-.83,0-1.24,0-.07-.07-.14-.1-.2a.34.34,0,0,0-.43-.16c0-.41,0-.83,0-1.24a.42.42,0,0,0-.1-.2.33.33,0,0,0-.42-.16c0-.59,0-1.17,0-1.76a.45.45,0,0,0-.28-.37.68.68,0,0,0-.25,0c0-1.11,0-2.22,0-3.34a.44.44,0,0,0-.28-.38c-.07,0-.17,0-.25,0Zm32.53,11.47v.53l4,4a2.1,2.1,0,0,1,.51.06,1.71,1.71,0,0,1,.4.32l.19.19h1.59l.57.53h2.64l.54-.48c.6-.1,1.13,0,1.65-.09l.19-.19a.75.75,0,0,1,.68-.3.34.34,0,0,0,.23-.08c.24-.25.47-.52.88-.45.34-.13.53-.44.78-.68s.63-.62.94-.93h.53l.76-.76,0-.56,2-2a.32.32,0,0,0,.09-.23c-.07-.42.24-.62.48-.86a1.66,1.66,0,0,1,.06-.51,8.38,8.38,0,0,1,1.07-1.17v-1l.55-.6v-1.05a1.13,1.13,0,0,0,.52-1.12,14.23,14.23,0,0,1,0-1.6,6.86,6.86,0,0,1,.07-1.57l.38-.38a1,1,0,0,0,.09-.5c0-2.57,0-5.15,0-7.72a.74.74,0,0,1,.29-.68.59.59,0,0,0,.25-.44.57.57,0,0,0-.13-.48l-.39-.39v-8l-.55-.58V584.3l-.55-.59v-1a2.48,2.48,0,0,1-.52-.61c.11-.54-.34-.76-.63-1.07s-.49-.49-.71-.7l-.54,0-.58-.49h-1.38a.38.38,0,0,1-.23-.08c-.14-.11-.24-.28-.39-.37a2.37,2.37,0,0,0-1-.08,4.73,4.73,0,0,1-.53,0,1.06,1.06,0,0,0-1.11.49,1.41,1.41,0,0,1-.27,0H220l-.58.53h-1l-.59.54h-.52c-.06.07-.14.13-.19.2a1,1,0,0,1-.9.37l-1.52,1.51a3.58,3.58,0,0,0-.72.19l-2.64,2.64c-.06.06-.1.14-.15.2l0,.52-1.5,1.51a2.16,2.16,0,0,1-.07.51,1.88,1.88,0,0,1-.5.59l0,.53-.53.58v.5l-.57.62c.2.41-.13.63-.37.88a.72.72,0,0,0-.12.21c0,.27,0,.53,0,.8a.52.52,0,0,1-.25.43.66.66,0,0,0-.28.68,1.08,1.08,0,0,1-.53,1.16v2.12l-.52.59v4.22l-.55.58v6.91l.55.59v3.15l.5.57c.07.76-.06,1.47.08,2.17.25.24.54.45.47.87a1,1,0,0,0,.47,1.12,4.4,4.4,0,0,1,.07,1.1l.5.57,0,.51Z"/><path class="cls-1" d="M451.91,114.25v8.65a.47.47,0,0,0,.27.41.75.75,0,0,0,.26,0v4.93a.46.46,0,0,0,.28.4c.07,0,.17,0,.25,0v10.13a.76.76,0,0,0-.26,0,.49.49,0,0,0-.27.41V150a.75.75,0,0,0-.26,0,.48.48,0,0,0-.27.4c0,1.47,0,2.93,0,4.4a.75.75,0,0,0-.26,0,.47.47,0,0,0-.27.39c0,1.12,0,2.23,0,3.34-.08,0-.18,0-.25,0a.44.44,0,0,0-.27.38c0,.76,0,1.52,0,2.28a.7.7,0,0,0-.25,0,.48.48,0,0,0-.28.38c0,.76,0,1.52,0,2.29a.7.7,0,0,0-.25,0,.45.45,0,0,0-.28.37c0,.59,0,1.17,0,1.76-.08,0-.18,0-.24,0a.45.45,0,0,0-.28.37c0,.59,0,1.18,0,1.76-.08,0-.18,0-.25,0a.47.47,0,0,0-.28.38,4.94,4.94,0,0,1-.06,1,1.07,1.07,0,0,0-.49,1.06,10.92,10.92,0,0,1,0,1.28.32.32,0,0,0-.42.16.42.42,0,0,0-.1.2c0,.41,0,.82,0,1.24a.7.7,0,0,0-.25,0,.47.47,0,0,0-.28.37c0,.25,0,.49-.23.66a.66.66,0,0,0-.31.63c0,.33,0,.67,0,1-.08,0-.18,0-.24,0a.44.44,0,0,0-.28.37c0,.25,0,.48-.24.66a.68.68,0,0,0-.31.62c0,.34,0,.67,0,1a.35.35,0,0,0-.42.15c0,.06-.11.13-.11.19,0,.24,0,.48,0,.73a.32.32,0,0,0-.41.15c0,.06-.11.12-.11.19,0,.24,0,.48,0,.72a.35.35,0,0,0-.42.15.66.66,0,0,0-.11.2c0,.24,0,.48,0,.72a.35.35,0,0,0-.42.15c0,.06-.11.13-.11.19,0,.24,0,.48,0,.73a.32.32,0,0,0-.41.15c0,.06-.11.12-.11.19,0,.24,0,.48,0,.72h-.32l-.64.7a.3.3,0,0,0-.1.2c.11.49-.33.7-.54,1v.76c-.08,0-.19,0-.24,0a4.82,4.82,0,0,0-.83.86v.74a.36.36,0,0,0-.4.13.4.4,0,0,0-.13.4c-.08,0-.19,0-.24,0a4.45,4.45,0,0,0-.83.85v.74a.4.4,0,0,0-.4.13.42.42,0,0,0-.13.41.37.37,0,0,0-.4.12.38.38,0,0,0-.13.41c-.09,0-.21,0-.25,0-1.53,1.51-3,3-4.55,4.55,0,0,0,.16,0,.25a.38.38,0,0,0-.41.13.4.4,0,0,0-.13.4h-.76a5.43,5.43,0,0,0-.83.83s0,.16,0,.24a.36.36,0,0,0-.4.13.4.4,0,0,0-.13.4h-.76a5,5,0,0,0-.83.83s0,.16,0,.24c-.24,0-.48,0-.72,0a.52.52,0,0,0-.19.11.34.34,0,0,0-.16.42h-.79l-.57.54h-.51a1.17,1.17,0,0,0-.19.2,1,1,0,0,1-.89.36,2.53,2.53,0,0,1-.6.5c-.41-.08-.64.18-.88.43a.61.61,0,0,1-.49.11.45.45,0,0,0-.4.27c0,.07,0,.17,0,.26h-1.3l-.55.5a2.53,2.53,0,0,1-.48,0,1,1,0,0,0-1.07.48,4.94,4.94,0,0,1-1,.06.45.45,0,0,0-.38.28c0,.06,0,.16,0,.25h-1.82l-.56.49a14.64,14.64,0,0,1-1.49,0,.44.44,0,0,0-.39.27.74.74,0,0,0,0,.26h-3.34a.44.44,0,0,0-.38.27c0,.07,0,.17,0,.26H398.57a.75.75,0,0,0,0-.26.47.47,0,0,0-.39-.27h-3.34a.75.75,0,0,0,0-.26.47.47,0,0,0-.38-.27h-2.29a.7.7,0,0,0,0-.25.49.49,0,0,0-.38-.28,5,5,0,0,1-1-.06,1.07,1.07,0,0,0-1.06-.48c-.42,0-.84,0-1.27,0,0-.09,0-.19,0-.25a.47.47,0,0,0-.38-.28.77.77,0,0,1-.66-.24.69.69,0,0,0-.62-.31c-.33,0-.67,0-1,0a.7.7,0,0,0,0-.25.47.47,0,0,0-.37-.28.77.77,0,0,1-.66-.23.67.67,0,0,0-.63-.31c-.33,0-.67,0-1,0a.35.35,0,0,0-.15-.42.66.66,0,0,0-.2-.11c-.24,0-.48,0-.72,0v-.32l-.69-.64c-.06-.05-.15-.11-.2-.1-.5.11-.7-.33-1-.54h-.76a.35.35,0,0,0-.15-.42c-.06,0-.12-.11-.19-.11-.24,0-.48,0-.72,0,0-.09,0-.2,0-.24a4.45,4.45,0,0,0-.85-.83h-.74c0-.09,0-.21,0-.26-.61-.63-1.24-1.26-1.85-1.87H374a.38.38,0,0,0-.13-.41.4.4,0,0,0-.4-.13c0-.08,0-.21,0-.25-1.15-1.17-2.31-2.32-3.47-3.48,0,0-.17,0-.26,0a.38.38,0,0,0-.13-.41.37.37,0,0,0-.4-.12v-.75a12.66,12.66,0,0,0-1.36-1.38s-.16,0-.24,0v-.74a4.45,4.45,0,0,0-.83-.85s-.15,0-.24,0v-.74a4.4,4.4,0,0,0-.82-.85c-.05,0-.16,0-.24,0,0-.24,0-.48,0-.72,0-.07-.07-.13-.11-.19a.33.33,0,0,0-.42-.15v-.79l-.54-.58v-.51a1.7,1.7,0,0,0-.19-.19,1,1,0,0,1-.36-.89,2.62,2.62,0,0,1-.51-.6c.08-.4-.17-.64-.43-.88s-.11-.29-.1-.48a.47.47,0,0,0-.27-.41c-.07,0-.17,0-.26,0,0-.24,0-.48,0-.72,0-.07-.07-.13-.11-.19a.33.33,0,0,0-.42-.15c0-.42,0-.83,0-1.24a.42.42,0,0,0-.1-.2.33.33,0,0,0-.43-.16v-1.3l-.52-.58c0-.28,0-.61,0-.94a.47.47,0,0,0-.28-.38c-.06,0-.16,0-.25,0,0-.42,0-.83,0-1.24a.42.42,0,0,0-.1-.2.33.33,0,0,0-.43-.16c0-.59,0-1.18,0-1.76a.48.48,0,0,0-.28-.37c-.07,0-.17,0-.25,0,0-.76,0-1.52,0-2.28a.45.45,0,0,0-.28-.38c-.06,0-.16,0-.25,0,0-.77,0-1.53,0-2.29a.48.48,0,0,0-.28-.38.7.7,0,0,0-.25,0V160a.46.46,0,0,0-.28-.4.7.7,0,0,0-.25,0v-16c.08,0,.18,0,.25,0a.45.45,0,0,0,.28-.38v-3.34a.74.74,0,0,0,.26,0,.49.49,0,0,0,.27-.39c0-.68,0-1.37,0-2L359,137c.2-.21.12-.48.12-.72,0-.6,0-1.21,0-1.81a.7.7,0,0,0,.25,0,.49.49,0,0,0,.28-.37c0-.59,0-1.18,0-1.76a.35.35,0,0,0,.43-.16.5.5,0,0,0,.1-.21c0-.41,0-.82,0-1.23a.35.35,0,0,0,.43-.16.5.5,0,0,0,.1-.21c0-.41,0-.82,0-1.23a.34.34,0,0,0,.42-.16.71.71,0,0,0,.11-.21c0-.41,0-.82,0-1.23a.35.35,0,0,0,.43-.16.5.5,0,0,0,.1-.21c0-.41,0-.82,0-1.23a.34.34,0,0,0,.42-.15c0-.07.11-.13.11-.2,0-.24,0-.48,0-.72a.7.7,0,0,0,.25,0,.46.46,0,0,0,.27-.37c0-.25,0-.49.24-.66a.67.67,0,0,0,.31-.63c0-.33,0-.67,0-1a.33.33,0,0,0,.42-.16c0-.06.11-.12.11-.19,0-.24,0-.48,0-.72a.35.35,0,0,0,.42-.15.66.66,0,0,0,.11-.2c0-.24,0-.48,0-.72h.32c.19-.2.42-.44.64-.69.05-.06.11-.14.1-.2-.11-.5.33-.7.54-1v-.75h.27l.75-.77a1.18,1.18,0,0,1,.36-.9,7.31,7.31,0,0,0,.75-.72v-.81c.09,0,.2,0,.24,0a11.8,11.8,0,0,0,1.36-1.38v-.75a.38.38,0,0,0,.41-.13.4.4,0,0,0,.13-.4c.08,0,.21,0,.25,0,1.34-1.33,2.68-2.66,4-4,0,0,0-.16,0-.25a.38.38,0,0,0,.41-.13.4.4,0,0,0,.13-.4h.8c.42-.44.9-.87,1.33-1.36,0,0,0-.16,0-.24h.82a8.56,8.56,0,0,0,.72-.75,1.13,1.13,0,0,1,.9-.36c.26-.26.52-.5.75-.77.05,0,0-.17,0-.25h.72c.07,0,.13-.07.2-.11a.35.35,0,0,0,.15-.42h.72a.52.52,0,0,0,.19-.11.35.35,0,0,0,.15-.42c.24,0,.49,0,.73,0,.06,0,.13-.07.19-.11a.33.33,0,0,0,.15-.41h.72c.07,0,.13-.07.2-.11a.35.35,0,0,0,.15-.42c.24,0,.48,0,.72,0a.52.52,0,0,0,.19-.11.35.35,0,0,0,.15-.42H387a.42.42,0,0,0,.2-.1.33.33,0,0,0,.16-.42h1.24a.42.42,0,0,0,.2-.1.34.34,0,0,0,.16-.43h1.24c.07,0,.14-.07.2-.1a.34.34,0,0,0,.16-.43h1.83l.55-.5c.49-.07,1,0,1.5,0a.46.46,0,0,0,.38-.27c0-.07,0-.17,0-.26,1.11,0,2.23,0,3.34,0a.46.46,0,0,0,.39-.28c0-.06,0-.17,0-.25H406c0,.08,0,.18,0,.25a.45.45,0,0,0,.38.28c.94,0,1.87,0,2.81,0,0,.09,0,.18,0,.25a.44.44,0,0,0,.37.28h1.75a.33.33,0,0,0,.17.42.42.42,0,0,0,.2.1H413a.34.34,0,0,0,.16.42.52.52,0,0,0,.19.11H414c0,.09,0,.2,0,.26a.43.43,0,0,0,.41.27.58.58,0,0,1,.48.11c.24.27.49.51.89.43l.62.51.5,0,.57.54h.79a.34.34,0,0,0,.18.44.64.64,0,0,0,.7,0,.34.34,0,0,0,.18-.44h.29l.16-.18c.12-.13.24-.25.37-.37s.25-.25.25-.67c0-.17,0-.35,0-.52a.49.49,0,0,0-.28-.39c-.06,0-.17,0-.25,0,0-.58,0-1.17,0-1.76a.45.45,0,0,0-.28-.37c-.06,0-.16,0-.25,0,0-.59,0-1.17,0-1.76a.45.45,0,0,0-.28-.37.7.7,0,0,0-.25,0c0-.59,0-1.18,0-1.76a.48.48,0,0,0-.28-.37c-.07,0-.17,0-.25,0,0-.41,0-.82,0-1.23a.5.5,0,0,0-.1-.21.35.35,0,0,0-.43-.16V89.46l-.54-.58v-1l-.55-.61v-1c-.09-.09-.14-.15-.21-.21a.75.75,0,0,1-.3-.68.45.45,0,0,0-.27-.41c-.07,0-.17,0-.26,0,0-.41,0-.82,0-1.23a.71.71,0,0,0-.11-.21.34.34,0,0,0-.42-.16c0-.24,0-.48,0-.72,0-.07-.07-.13-.11-.19a.33.33,0,0,0-.42-.15c0-.34,0-.68,0-1a.65.65,0,0,0-.31-.62A.8.8,0,0,1,414,80a.46.46,0,0,0-.27-.38.7.7,0,0,0-.25,0c0-.24,0-.48,0-.72,0-.07-.07-.13-.11-.2a.34.34,0,0,0-.42-.15c0-.24,0-.48,0-.72,0-.07-.07-.13-.11-.19a.34.34,0,0,0-.42-.15c0-.25,0-.49,0-.73a.62.62,0,0,0-.11-.19.35.35,0,0,0-.42-.15c0-.24,0-.48,0-.72,0-.07-.07-.13-.11-.2a.34.34,0,0,0-.42-.15v-.74c-.2-.33-.65-.53-.53-1a3.65,3.65,0,0,0-.82-.89s-.16,0-.25,0c0-.25,0-.49,0-.73,0-.06-.07-.13-.11-.19a.35.35,0,0,0-.42-.15v-.74a4.82,4.82,0,0,0-.83-.86s-.15,0-.24,0v-.79l-1.06-1.09,0-.54c-.44-.44-.86-.88-1.31-1.31,0,0-.16,0-.25,0a.47.47,0,0,0-.54-.54v-.79l-5.6-5.61h-.8a.46.46,0,0,0-.53-.53c0-.08,0-.19,0-.24a4.82,4.82,0,0,0-.86-.83h-.74c0-.08,0-.19,0-.24a4.76,4.76,0,0,0-.86-.82h-.74a.34.34,0,0,0-.15-.42c-.06,0-.13-.11-.19-.11-.24,0-.49,0-.73,0a.35.35,0,0,0-.15-.42.52.52,0,0,0-.19-.11h-.72a.35.35,0,0,0-.15-.42c-.07,0-.13-.11-.2-.11h-.72a.35.35,0,0,0-.16-.43c-.07,0-.14-.1-.2-.1H390a.34.34,0,0,0-.16-.42.81.81,0,0,0-.2-.11h-1.24a.7.7,0,0,0,0-.25.45.45,0,0,0-.38-.28c-.58,0-1.17,0-1.75,0,0-.09,0-.19,0-.26a.46.46,0,0,0-.39-.27h-3.34a.75.75,0,0,0,0-.26.47.47,0,0,0-.41-.27h-2.37a.47.47,0,0,0-.41.27c0,.07,0,.17,0,.26H376a.44.44,0,0,0-.38.27c0,.07,0,.17,0,.26-.59,0-1.17,0-1.76,0a.45.45,0,0,0-.37.28.7.7,0,0,0,0,.25h-1.24a.56.56,0,0,0-.2.11.33.33,0,0,0-.16.42h-1.32L370,55l-.54,0a1.09,1.09,0,0,0-.18.19c-.22.33-.58.32-.89.36-.27.26-.53.5-.76.77,0,0,0,.17,0,.26h-.72c-.07,0-.13.07-.19.11a.34.34,0,0,0-.16.42h-.8l-1.86,1.87c0,.05,0,.17,0,.26-.24,0-.48,0-.72,0-.07,0-.13.07-.2.11a.34.34,0,0,0-.15.42H361c-.35-.35-.72-.72-1.09-1.07,0,0-.17,0-.26,0V56.65c.09,0,.21,0,.26,0,.63-.61,1.25-1.24,1.87-1.87,0,0,0-.17,0-.26a.38.38,0,0,0,.41-.13.4.4,0,0,0,.13-.4h.75a14.75,14.75,0,0,0,1.38-1.36s0-.16,0-.24a.4.4,0,0,0,.4-.13.37.37,0,0,0,.13-.4h.75a12.66,12.66,0,0,0,1.38-1.36c0-.05,0-.16,0-.24h.72c.07,0,.13-.07.19-.11a.35.35,0,0,0,.15-.42h.76a5.42,5.42,0,0,0,.84-.82s0-.16,0-.24h.73c.06,0,.13-.07.19-.11a.35.35,0,0,0,.15-.42h.72a.66.66,0,0,0,.2-.11.35.35,0,0,0,.15-.42c.24,0,.48,0,.72,0,.07,0,.13-.07.19-.11a.33.33,0,0,0,.15-.41c.34,0,.68,0,1,0a.65.65,0,0,0,.62-.31.76.76,0,0,1,.66-.23.49.49,0,0,0,.38-.28.7.7,0,0,0,0-.25h1.24c.06,0,.13-.06.2-.1a.34.34,0,0,0,.16-.42H379a1.48,1.48,0,0,0,.21-.13c.45-.4.45-.4.85-.41a4.34,4.34,0,0,0,.51,0,.49.49,0,0,0,.38-.28.7.7,0,0,0,0-.25h2.29a.47.47,0,0,0,.38-.27.7.7,0,0,0,0-.25h2.81a.44.44,0,0,0,.38-.28c0-.06,0-.16,0-.25H398c0,.09,0,.19,0,.26a.44.44,0,0,0,.38.27h3.34a.69.69,0,0,0,0,.25.44.44,0,0,0,.38.27h2.28c0,.08,0,.18,0,.25a.48.48,0,0,0,.37.28c.58,0,1.17,0,1.75,0a.34.34,0,0,0,.17.43.42.42,0,0,0,.2.1h1.23a.33.33,0,0,0,.17.42.42.42,0,0,0,.2.1h1.23a.34.34,0,0,0,.17.43c.06,0,.13.1.2.1.41,0,.82,0,1.23,0a.68.68,0,0,0,0,.25.44.44,0,0,0,.37.28.93.93,0,0,1,.84.41.69.69,0,0,0,.2.13H414a.35.35,0,0,0,.15.42.66.66,0,0,0,.2.11h.72a.35.35,0,0,0,.15.42c.06,0,.13.11.19.11h.72a.33.33,0,0,0,.16.41c.06,0,.12.11.19.11.24,0,.48,0,.72,0a.35.35,0,0,0,.15.42.66.66,0,0,0,.2.11h.72c0,.08,0,.2,0,.24a4.23,4.23,0,0,0,.86.83h.74a.35.35,0,0,0,.15.42.62.62,0,0,0,.19.11H421c0,.08,0,.2,0,.24a4.45,4.45,0,0,0,.85.83h.74a.4.4,0,0,0,.13.4.38.38,0,0,0,.41.13c0,.08,0,.2,0,.24A4.23,4.23,0,0,0,424,54h.74a.46.46,0,0,0,.53.53c0,.09,0,.21,0,.26,1,1,2,2,2.95,2.94H429v.77c1.17,1.17,2.32,2.34,3.48,3.49.05.05.17,0,.26,0a.46.46,0,0,0,.53.53v.74a4.82,4.82,0,0,0,.83.86s.16,0,.24,0a.38.38,0,0,0,.13.41.4.4,0,0,0,.4.13v.74a4.45,4.45,0,0,0,.83.85s.16,0,.24,0V67a4.4,4.4,0,0,0,.82.85s.16,0,.24,0c0,.24,0,.48,0,.72,0,.06.07.13.11.19a.35.35,0,0,0,.42.15v.74a4.76,4.76,0,0,0,.82.86c.05,0,.16,0,.24,0,0,.24,0,.48,0,.72,0,.07.07.13.11.2a.35.35,0,0,0,.42.15c0,.24,0,.48,0,.72a.52.52,0,0,0,.11.19.34.34,0,0,0,.42.16c0,.24,0,.48,0,.72,0,.06.07.13.11.19a.33.33,0,0,0,.41.15c0,.24,0,.48,0,.72,0,.07.07.13.11.2a.35.35,0,0,0,.42.15c0,.24,0,.48,0,.72a.52.52,0,0,0,.11.19.34.34,0,0,0,.42.16c0,.24,0,.48,0,.72,0,.06.07.13.11.19a.33.33,0,0,0,.41.15c0,.24,0,.48,0,.72,0,.07.07.13.11.2a.35.35,0,0,0,.42.15c0,.24,0,.48,0,.72a.52.52,0,0,0,.11.19.34.34,0,0,0,.42.16c0,.33,0,.67,0,1a.71.71,0,0,0,.31.63.75.75,0,0,1,.24.66.47.47,0,0,0,.28.37.7.7,0,0,0,.25,0c0,.34,0,.67,0,1a.68.68,0,0,0,.31.62c.23.18.22.41.24.66a.44.44,0,0,0,.28.37c.06,0,.16,0,.24,0,0,.41,0,.82,0,1.23a.5.5,0,0,0,.1.21.35.35,0,0,0,.43.16c0,.41,0,.82,0,1.23a.5.5,0,0,0,.1.21.35.35,0,0,0,.43.16c0,.41,0,.82,0,1.23a.5.5,0,0,0,.1.21.34.34,0,0,0,.42.16c0,.41,0,.82,0,1.23a.5.5,0,0,0,.1.21.35.35,0,0,0,.43.16c0,.58,0,1.17,0,1.76a.49.49,0,0,0,.28.37.7.7,0,0,0,.25,0c0,.41,0,.83,0,1.24a.42.42,0,0,0,.1.2.33.33,0,0,0,.42.16c0,.6,0,1.2,0,1.8a1.1,1.1,0,0,0,.5,1.07,13.28,13.28,0,0,1,0,1.54.48.48,0,0,0,.28.39c.06,0,.17,0,.25,0,0,.59,0,1.17,0,1.76a.45.45,0,0,0,.28.37.63.63,0,0,0,.24,0c0,.76,0,1.52,0,2.28a.45.45,0,0,0,.28.38c.06,0,.16,0,.25,0,0,.76,0,1.52,0,2.28a.45.45,0,0,0,.28.38c.07,0,.17,0,.25,0,0,.94,0,1.87,0,2.81a.44.44,0,0,0,.27.38c.07,0,.17,0,.25,0,0,1.29,0,2.58,0,3.87a.47.47,0,0,0,.27.39A.74.74,0,0,0,451.91,114.25ZM421,127.84v-5.32l-.55-.59v-2.1a2.24,2.24,0,0,1-.51-.61c.08-.41-.18-.64-.44-.89a.34.34,0,0,1-.09-.22c0-.27,0-.53,0-.8a.5.5,0,0,0-.09-.23c-.16-.2-.46-.32-.43-.62s-.29-.6-.52-.85-.37-.38-.56-.57v-.53L413.24,110h-.55l-.17-.18-.56-.57a.83.83,0,0,0-.67-.33c-.3,0-.42-.27-.62-.42a.6.6,0,0,0-.23-.1h-.26a1.08,1.08,0,0,1-1.17-.53h-1.58l-.6-.52h-2.64l-.56.52h-1.58l-.57.53-.54,0a2,2,0,0,1-.59.5c-.41-.08-.64.19-.89.44-1.31,1.33-2.63,2.64-3.95,4-.21.21-.09.49-.2.73l-.93.94a1.53,1.53,0,0,1-.57,1.1l0,.54-.53.57v.51l-.55.59v1l-.51.58a4.21,4.21,0,0,1-.07,1.08c-.47.48-.49.48-.46.87a1.08,1.08,0,0,1-.48,1.12,8.83,8.83,0,0,0-.06,1.63l-.52.6v2.61l-.55.59v3.18l-.55.59v6.37l-.2.2c-.32.33-.32.33-.32.67,0,2.93,0,5.87,0,8.8a4.43,4.43,0,0,1-.06.51,1.13,1.13,0,0,0-.48.87q0,3.33,0,6.66a1.13,1.13,0,0,0,.48.87,4.7,4.7,0,0,1,.06.51c0,2.14,0,4.27,0,6.4a1.08,1.08,0,0,0,.52,1.13v3.16l.18.23.37.37v3.73l.55.58v2.64l.2.21c.32.32.32.33.32.67v2.13a1.05,1.05,0,0,0,.06.24c.48.47.48.47.47.87a4.68,4.68,0,0,1,0,.53,1.08,1.08,0,0,0,.47,1.13,4.88,4.88,0,0,1,.07,1.09l.51.59v1l.55.59v1l.53.57,0,.54a2.08,2.08,0,0,1,.5.6c-.08.4.19.63.44.88s.08.31.1.49.33.4.46.61,0,.36.07.5a7.86,7.86,0,0,0,1.07,1.17v.52l2.45,2.45c.18.18.33.44.61.47a1.1,1.1,0,0,1,.49.1l.94.94.54,0,.57.53h5.31l.57-.53.54,0a1.49,1.49,0,0,1,1.1-.56l.94-.94c.23-.12.52,0,.73-.19l3.2-3.21c.21-.2.08-.49.2-.73l.93-.93a1.43,1.43,0,0,1,.57-1.1l0-.54.53-.57v-.51l.54-.59v-1l.52-.59a4.76,4.76,0,0,1,.06-1.08c.25-.24.55-.45.48-.87a1,1,0,0,1,.46-1.12,1,1,0,0,0,.07-.26v-1.37l.52-.59v-1.55l.55-.59v-2.11l.55-.59v-2.64l.2-.2c.32-.33.32-.33.31-.67,0-1.07,0-2.13,0-3.2a1.2,1.2,0,0,1,.07-.27,1,1,0,0,0,.47-.84c0-1.87,0-3.74,0-5.6a1.14,1.14,0,0,1,.48-.88,3.25,3.25,0,0,0,.06-1q0-12.94,0-25.87c0-.43-.29-.6-.53-.88v-3.7Z"/><path class="cls-1" d="M303.64,97.71h.53a.67.67,0,0,0,0,.25.45.45,0,0,0,.38.28h2.28c0,.08,0,.18,0,.25a.44.44,0,0,0,.37.27h2.29a.34.34,0,0,0,.16.43c.06,0,.13.1.2.1h1.24c0,.09,0,.19,0,.25a.48.48,0,0,0,.39.28,4.67,4.67,0,0,1,1,.06c.13.12.24.25.37.36a.37.37,0,0,0,.2.11c.17,0,.34,0,.51,0l.49,0,.55.5h1.3a.75.75,0,0,0,0,.26.45.45,0,0,0,.41.27.72.72,0,0,1,.67.29.44.44,0,0,0,.42.24c.42-.06.6.27.85.5a1.33,1.33,0,0,1,.5,0,5.44,5.44,0,0,1,.62.5l.5,0,.57.52h.5l.57.54h.79c0,.08,0,.2,0,.24a4.23,4.23,0,0,0,.86.83h.74c0,.08,0,.19,0,.24a4.52,4.52,0,0,0,.86.83h.74a.37.37,0,0,0,.13.4.4.4,0,0,0,.4.13c0,.09,0,.21,0,.26.61.63,1.24,1.25,1.85,1.87h.81a.38.38,0,0,0,.13.41.4.4,0,0,0,.4.13.4.4,0,0,0,.13.4.46.46,0,0,1,.53.53.38.38,0,0,0,.41.13v.81c.62.61,1.24,1.24,1.87,1.85.05,0,.17,0,.26,0a.4.4,0,0,0,.13.4.36.36,0,0,0,.4.13v.74a4.82,4.82,0,0,0,.83.86c.05,0,.16,0,.24,0v.74a4.82,4.82,0,0,0,.83.86s.16,0,.24,0v.74a4.76,4.76,0,0,0,.82.86c.05,0,.16,0,.24,0,0,.24,0,.48,0,.72,0,.07.07.13.11.2a.35.35,0,0,0,.42.15c0,.24,0,.48,0,.72a.52.52,0,0,0,.11.19.34.34,0,0,0,.42.16c0,.24,0,.48,0,.72,0,.06.07.13.11.19a.33.33,0,0,0,.41.15c0,.24,0,.48,0,.72,0,.07.07.13.11.2a.35.35,0,0,0,.42.15c0,.24,0,.48,0,.72a.52.52,0,0,0,.11.19.34.34,0,0,0,.42.16c0,.33,0,.67,0,1a.71.71,0,0,0,.31.63.75.75,0,0,1,.24.66.47.47,0,0,0,.28.37.7.7,0,0,0,.25,0c0,.41,0,.83,0,1.24a.42.42,0,0,0,.1.2.34.34,0,0,0,.43.16c0,.41,0,.83,0,1.24a.42.42,0,0,0,.1.2.33.33,0,0,0,.42.16c0,.59,0,1.17,0,1.76a.45.45,0,0,0,.28.37.68.68,0,0,0,.25,0c0,.58,0,1.17,0,1.75a.48.48,0,0,0,.28.37c.07,0,.17,0,.25,0,0,.76,0,1.52,0,2.28a.44.44,0,0,0,.27.38.69.69,0,0,0,.25,0c0,.93,0,1.87,0,2.81a.44.44,0,0,0,.27.38.74.74,0,0,0,.26,0v19.73a.75.75,0,0,0-.26,0,.47.47,0,0,0-.27.39c0,1.12,0,2.23,0,3.34-.08,0-.18,0-.25,0a.49.49,0,0,0-.28.39c0,.68,0,1.36,0,2l-.37.37c-.2.21-.12.48-.12.72,0,.6,0,1.2,0,1.81-.09,0-.19,0-.25,0a.45.45,0,0,0-.28.38,5.08,5.08,0,0,1-.06,1,1.06,1.06,0,0,0-.49,1.06,10.75,10.75,0,0,1,0,1.27.7.7,0,0,0-.25,0,.5.5,0,0,0-.28.38.75.75,0,0,1-.25.67.71.71,0,0,0-.29.64,5.61,5.61,0,0,1,0,.72l-.51.56v1.3a.34.34,0,0,0-.42.15.52.52,0,0,0-.11.19c0,.24,0,.48,0,.72-.09,0-.2,0-.26,0a.43.43,0,0,0-.27.41.58.58,0,0,1-.11.48c-.27.25-.51.49-.43.89l-.51.62,0,.49a1.56,1.56,0,0,0-.16.2l-.38.36V182a.33.33,0,0,0-.41.15c0,.06-.11.13-.11.19,0,.24,0,.48,0,.73h-.32c-.19.2-.42.44-.64.69a.3.3,0,0,0-.1.2c.11.5-.33.7-.54,1v.75c-.08,0-.19,0-.24,0a4.45,4.45,0,0,0-.83.85v.74c-.08,0-.19,0-.24,0a12.66,12.66,0,0,0-1.36,1.38v.75c-.08,0-.21,0-.26,0l-1.87,1.86v.8a.4.4,0,0,0-.4.13.38.38,0,0,0-.13.41.39.39,0,0,0-.41.12.42.42,0,0,0-.13.41.36.36,0,0,0-.4.13.46.46,0,0,1-.53.53.38.38,0,0,0-.13.41.39.39,0,0,0-.41.12.42.42,0,0,0-.13.41h-.8l-1.86,1.87s0,.17,0,.26a.47.47,0,0,0-.54.54h-.76a5.84,5.84,0,0,0-.83.82s0,.16,0,.24H321a5.43,5.43,0,0,0-.83.83s0,.16,0,.24h-.74c-.33.2-.53.65-1,.53a3.51,3.51,0,0,0-.89.83s0,.16,0,.24c-.24,0-.48,0-.72,0a.66.66,0,0,0-.2.11.35.35,0,0,0-.15.42c-.24,0-.48,0-.72,0-.07,0-.13.07-.19.11a.33.33,0,0,0-.16.42c-.33,0-.67,0-1,0a.67.67,0,0,0-.63.31c-.17.23-.41.22-.66.23a.49.49,0,0,0-.37.28.7.7,0,0,0,0,.25h-1.24a.42.42,0,0,0-.2.1.34.34,0,0,0-.16.43h-1.24a.42.42,0,0,0-.2.1.34.34,0,0,0-.16.43h-1.76a.49.49,0,0,0-.37.28.69.69,0,0,0,0,.25h-2.28a.44.44,0,0,0-.38.27.75.75,0,0,0,0,.26h-3.34a.46.46,0,0,0-.39.27.74.74,0,0,0,0,.26H289.24c0-.09,0-.19,0-.26a.44.44,0,0,0-.38-.27h-3.34c0-.09,0-.19,0-.25a.44.44,0,0,0-.37-.28c-.58,0-1.17,0-1.76,0a.7.7,0,0,0,0-.25.49.49,0,0,0-.37-.28h-1.76a.35.35,0,0,0-.16-.43c-.07,0-.14-.1-.2-.1h-1.24a.35.35,0,0,0-.16-.43c-.07,0-.14-.1-.2-.1H278a.35.35,0,0,0-.15-.42.62.62,0,0,0-.19-.11H277a.7.7,0,0,0,0-.25.47.47,0,0,0-.37-.28.77.77,0,0,1-.66-.23.67.67,0,0,0-.63-.31c-.33,0-.67,0-1,0v-.31l-.7-.64c-.05,0-.14-.12-.2-.11-.5.11-.7-.33-1-.54h-.76a.35.35,0,0,0-.15-.42.62.62,0,0,0-.19-.11c-.24,0-.49,0-.73,0,0-.08,0-.19,0-.24a4.23,4.23,0,0,0-.86-.83H269a.46.46,0,0,0-.53-.53c0-.08,0-.19,0-.24a4.82,4.82,0,0,0-.86-.83h-.74a.46.46,0,0,0-.53-.53c0-.09,0-.21,0-.26q-3.33-3.35-6.67-6.67s-.17,0-.26,0a.38.38,0,0,0-.13-.41.4.4,0,0,0-.4-.13v-.76a5,5,0,0,0-.83-.83s-.15,0-.24,0v-.76a5.36,5.36,0,0,0-.82-.83c-.05,0-.16,0-.24,0V185a5.43,5.43,0,0,0-.83-.83s-.16,0-.24,0c0-.24,0-.48,0-.72a.52.52,0,0,0-.11-.19.34.34,0,0,0-.42-.15v-.79l-.54-.57,0-.51-.51-.61a.93.93,0,0,0-.42-.89.55.55,0,0,1-.12-.48.46.46,0,0,0-.26-.42.81.81,0,0,0-.27,0c0-.24,0-.48,0-.72,0-.07-.07-.13-.11-.2a.35.35,0,0,0-.42-.15c0-.41,0-.82,0-1.23a.71.71,0,0,0-.11-.21.34.34,0,0,0-.42-.16v-1.3l-.51-.55a2.54,2.54,0,0,1,0-.48,1,1,0,0,0-.48-1.06,4.44,4.44,0,0,1-.06-1,.49.49,0,0,0-.28-.38c-.07,0-.17,0-.25,0,0-.58,0-1.17,0-1.76a.45.45,0,0,0-.28-.37c-.06,0-.16,0-.25,0,0-.76,0-1.52,0-2.28a.45.45,0,0,0-.28-.38c-.07,0-.16,0-.25,0,0-.76,0-1.52,0-2.28a.47.47,0,0,0-.28-.38.7.7,0,0,0-.25,0c0-1.12,0-2.23,0-3.34a.44.44,0,0,0-.27-.39c-.07,0-.17,0-.26,0v-17.6a.75.75,0,0,0,.26,0,.47.47,0,0,0,.27-.39c0-1.11,0-2.23,0-3.34.08,0,.18,0,.25,0a.47.47,0,0,0,.28-.38c0-.76,0-1.52,0-2.28a.7.7,0,0,0,.25,0,.45.45,0,0,0,.28-.38c0-.76,0-1.52,0-2.28a.74.74,0,0,0,.26,0,.46.46,0,0,0,.27-.38,4.94,4.94,0,0,1,.06-1,1.07,1.07,0,0,0,.49-1.06c0-.42,0-.85,0-1.28a.34.34,0,0,0,.43-.16.42.42,0,0,0,.1-.2c0-.41,0-.83,0-1.24.09,0,.19,0,.25,0a.47.47,0,0,0,.28-.37.75.75,0,0,1,.24-.66.71.71,0,0,0,.31-.63c0-.33,0-.67,0-1a.34.34,0,0,0,.42-.16c0-.06.11-.12.11-.19,0-.24,0-.48,0-.72.09,0,.2,0,.27,0a.44.44,0,0,0,.26-.41.55.55,0,0,1,.12-.48.93.93,0,0,0,.42-.89l.51-.62,0-.49.17-.19c.12-.13.25-.25.37-.37v-.81a.35.35,0,0,0,.42-.15.62.62,0,0,0,.11-.19c0-.24,0-.48,0-.72h.27l.75-.77a1.18,1.18,0,0,1,.36-.9,7.31,7.31,0,0,0,.75-.72v-.81c.09,0,.2,0,.24,0a11.8,11.8,0,0,0,1.36-1.38v-.75c.09,0,.22,0,.26,0l2.94-3V110a.42.42,0,0,0,.41-.13.4.4,0,0,0,.13-.4h.77c1-1,2-2,3-3,0,0,0-.17,0-.25h.74a5.19,5.19,0,0,0,.86-.83s0-.16,0-.24a.4.4,0,0,0,.4-.13.37.37,0,0,0,.13-.4h.75c.33-.21.53-.66,1-.54a3.32,3.32,0,0,0,.89-.82c.05,0,0-.16,0-.24h.72c.07,0,.13-.07.2-.11a.35.35,0,0,0,.15-.42h.74a.67.67,0,0,0,.19-.14c.3-.27.3-.27.83-.39a.54.54,0,0,0,.37-.29.65.65,0,0,0,0-.24h.72c.07,0,.13-.07.2-.11a.35.35,0,0,0,.15-.42c.33,0,.67,0,1,0a.69.69,0,0,0,.63-.31c.17-.23.41-.22.66-.24a.47.47,0,0,0,.37-.28c0-.06,0-.16,0-.24h1.24a.42.42,0,0,0,.2-.1.34.34,0,0,0,.16-.43h1.76a.48.48,0,0,0,.37-.28c0-.07,0-.17,0-.25h2.28a.44.44,0,0,0,.38-.27.7.7,0,0,0,0-.25h2.81a.45.45,0,0,0,.39-.28c0-.06,0-.16,0-.25h15.47Zm2.18,92,.57-.57c.25-.24.53-.47.45-.88.09-.26.32-.4.51-.62v-1l.55-.61v-.49l.55-.6v-1l.55-.61v-1l.51-.6c0-.49,0-.94,0-1.38a.52.52,0,0,1,.26-.42.53.53,0,0,0,.27-.43V178l.53-.63v-2.56a1.59,1.59,0,0,1,.15-.21l.38-.39v-3.7l.55-.6v-7.43l.52-.58q0-4.16,0-8.28c0-.08,0-.17,0-.27a1,1,0,0,0,.5-1.11v-5.86a1.19,1.19,0,0,0-.07-.51,1.13,1.13,0,0,1-.48-.87c0-2,0-4.08,0-6.13a1.09,1.09,0,0,0-.48-.86,5,5,0,0,1-.06-.51c0-1.25,0-2.49,0-3.74a1.19,1.19,0,0,0-.54-1.13v-4.26l-.53-.57v-2.65l-.55-.58v-2.09l-.52-.59c0-.3,0-.57,0-.83a1.47,1.47,0,0,0-.05-.26,1.07,1.07,0,0,1-.48-1.12,5.34,5.34,0,0,0,0-.8.55.55,0,0,0-.27-.42.43.43,0,0,1-.25-.42c.06-.43-.28-.61-.52-.89v-1l-.55-.59v-.51l-.54-.57c0-.19,0-.36,0-.54l-.19-.19a1.33,1.33,0,0,1-.38-.91l-.94-.94a1.55,1.55,0,0,0-.38-.91l-2.08-2.08h-.51l-1.16-1.1h-1l-.21-.21c-.31-.3-.31-.3-.67-.3a1.44,1.44,0,0,1-.77-.08c-.77-.45-.77-.45-1.15-.45-1,0-2,0-2.93,0a1.14,1.14,0,0,0-1.13.52h-1l-.62.55h-.48l-.6.54H290c-.25.26-.53.49-.75.77s-.61.26-.91.36l-2.27,2.27a1.44,1.44,0,0,1-.37.91l-.76.75V114a8.87,8.87,0,0,0-1.06,1.15,4.1,4.1,0,0,1-.07,1.05c-.24.24-.5.45-.48.87,0,.27-.29.41-.46.6a4.22,4.22,0,0,0-.06,1.08l-.52.59v1l-.55.58V123l-.54.58v1.57l-.21.21a.81.81,0,0,0-.32.67c0,.71,0,1.42,0,2.13a.71.71,0,0,1-.06.24,1.13,1.13,0,0,0-.48.87c0,1,0,2,0,2.93a1.1,1.1,0,0,1-.47.87,1.19,1.19,0,0,0-.07.51v4.8a1,1,0,0,1-.49,1.11,1.38,1.38,0,0,0,0,.26v8.29l.53.57v20.23l.54.59v4.23l.53.58c0,.73,0,1.44,0,2.13l.2.2c.31.31.29.32.3.67a9.32,9.32,0,0,0,.07,1.83l.38.38a.75.75,0,0,1,.08.24c0,.44,0,.89,0,1.33a1.08,1.08,0,0,0,.51,1.13v1.05l.55.61v1.56l.55.59v.52c.07.06.12.14.19.19a1,1,0,0,1,.37.9c.23.26.57.44.51.87,0,.17.09.31.25.43a.5.5,0,0,1,.27.41.71.71,0,0,0,.3.68c.25.18.24.44.24.7a1.48,1.48,0,0,0,.13.21c1.26,1.26,2.51,2.52,3.77,3.77a.35.35,0,0,0,.23.09c.41-.06.62.24.87.47a.34.34,0,0,0,.24.07c.43-.07.6.28.86.5l.54,0,.57.53h5.84l.57-.53.54,0,.37-.38a.52.52,0,0,1,.48-.13.32.32,0,0,0,.24-.06c.26-.23.46-.55.87-.47.37-.1.55-.42.8-.66.76-.74,1.51-1.5,2.27-2.27v-.53l.93-.93A3,3,0,0,0,305.82,189.67Z"/><path class="cls-1" d="M138.31,155.31v-6.4c.08,0,.19,0,.25,0a.48.48,0,0,0,.28-.4v-5.46c.09,0,.19,0,.26,0a.47.47,0,0,0,.27-.4c0-.52,0-1,0-1.55a11.46,11.46,0,0,1,0-1.55c.12-.12.25-.24.37-.37s.12-.47.12-.72c0-.78,0-1.56,0-2.34a.7.7,0,0,0,.25,0,.49.49,0,0,0,.28-.37c0-.59,0-1.18,0-1.76.08,0,.18,0,.25,0a.44.44,0,0,0,.28-.37c0-.58,0-1.17,0-1.75a.74.74,0,0,0,.26,0,.46.46,0,0,0,.27-.38,4.42,4.42,0,0,1,.07-1,1,1,0,0,0,.48-1.06,2,2,0,0,1,0-.49l.5-.55v-1.29a.67.67,0,0,0,.25,0,.47.47,0,0,0,.28-.37.76.76,0,0,1,.24-.66.7.7,0,0,0,.31-.63c0-.33,0-.67,0-1,.09,0,.19,0,.26,0a.45.45,0,0,0,.27-.4.62.62,0,0,1,.1-.48c.25-.24.51-.47.44-.87a.29.29,0,0,1,.11-.21c.26-.24.5-.48.42-.88a2.48,2.48,0,0,1,.49-.58c0-.17,0-.33,0-.5a11.54,11.54,0,0,1,1.07-1.14v-.51l.53-.57v-.78c.09,0,.21,0,.26,0,.44-.42.86-.86,1.31-1.32.08-.19,0-.47.17-.68l1.46-1.42v-.84a.42.42,0,0,0,.41-.13.4.4,0,0,0,.13-.4c.09,0,.21,0,.26,0q2.53-2.52,5.07-5.07s0-.17,0-.26a.46.46,0,0,0,.53-.53h.75a12.66,12.66,0,0,0,1.38-1.36s0-.16,0-.24h.74a4.45,4.45,0,0,0,.85-.83s0-.16,0-.24c.24,0,.48,0,.72,0a.52.52,0,0,0,.19-.11.35.35,0,0,0,.15-.42h.75c.33-.2.53-.66,1-.53a3.36,3.36,0,0,0,.89-.83s0-.16,0-.24h1.27c.34-.19.54-.65,1-.54.06,0,.15-.06.2-.11a1,1,0,0,1,.84-.43.42.42,0,0,0,.38-.27.7.7,0,0,0,0-.25h1.24a.42.42,0,0,0,.2-.1.33.33,0,0,0,.16-.42H171a.42.42,0,0,0,.2-.1.34.34,0,0,0,.16-.43h1.76a.48.48,0,0,0,.37-.28c0-.07,0-.17,0-.25h2.28a.44.44,0,0,0,.38-.27.7.7,0,0,0,0-.25h3.34a.46.46,0,0,0,.39-.27c0-.07,0-.17,0-.26h13.86a.67.67,0,0,0,0,.25.44.44,0,0,0,.38.28H197a.69.69,0,0,0,0,.25.44.44,0,0,0,.38.27h2.28a.35.35,0,0,0,.16.43c.07,0,.14.1.21.1h1.23c0,.09,0,.18,0,.25a.44.44,0,0,0,.37.28h1.75a.63.63,0,0,0,0,.24c.08.16.22.3.37.28a.94.94,0,0,1,.84.42,1,1,0,0,0,.2.12H206c0,.09,0,.18,0,.25a.44.44,0,0,0,.37.28.9.9,0,0,1,.83.41.69.69,0,0,0,.2.13h1.26a.35.35,0,0,0,.15.42.62.62,0,0,0,.19.11h.72a.34.34,0,0,0,.16.42c.06,0,.12.11.19.11h.72a.33.33,0,0,0,.15.41c.07,0,.13.11.2.11.24,0,.48,0,.72,0,0,.08,0,.19,0,.24a4.52,4.52,0,0,0,.86.83h.74c0,.08,0,.19,0,.23a4,4,0,0,0,.86.83h.74c0,.08,0,.2,0,.24a14.75,14.75,0,0,0,1.38,1.36h.75a.42.42,0,0,0,.13.41.4.4,0,0,0,.4.13c0,.08,0,.2,0,.25q2,2,4,4s.16,0,.25,0a.42.42,0,0,0,.13.41.4.4,0,0,0,.4.13v.74a12.66,12.66,0,0,0,1.36,1.38s.16,0,.24,0v.76a5.43,5.43,0,0,0,.83.83c.05,0,.16,0,.24,0v.76a5,5,0,0,0,.83.83c.05,0,.16,0,.24,0,0,.24,0,.48,0,.72a.52.52,0,0,0,.11.19.34.34,0,0,0,.42.16v.78l.54.58v.51a1.75,1.75,0,0,0,.2.19,1,1,0,0,1,.36.9,2.31,2.31,0,0,1,.5.59c-.08.4.17.64.43.88a.59.59,0,0,1,.11.48.45.45,0,0,0,.27.41c.07,0,.17,0,.26,0,0,.24,0,.48,0,.72a.52.52,0,0,0,.11.19.34.34,0,0,0,.42.16c0,.41,0,.82,0,1.23a.42.42,0,0,0,.1.2.33.33,0,0,0,.42.17c0,.41,0,.82,0,1.23a.42.42,0,0,0,.1.2.34.34,0,0,0,.43.17c0,.41,0,.82,0,1.23a.42.42,0,0,0,.1.2.34.34,0,0,0,.43.17c0,.58,0,1.17,0,1.75a.44.44,0,0,0,.28.37c.06,0,.16,0,.24,0,0,.76,0,1.52,0,2.28a.45.45,0,0,0,.28.38.67.67,0,0,0,.25,0c0,.93,0,1.87,0,2.81a.45.45,0,0,0,.28.38.69.69,0,0,0,.25,0v3.87a.48.48,0,0,0,.28.39.7.7,0,0,0,.25,0q0,3.54,0,7.06a.44.44,0,0,0,.27.4c.07,0,.17,0,.26,0v2.67a.75.75,0,0,0-.26,0,.46.46,0,0,0-.27.4c0,2.18,0,4.35,0,6.53v.53c-.08,0-.18,0-.25,0a.44.44,0,0,0-.27.38c0,.94,0,1.88,0,2.81-.08,0-.18,0-.25,0a.45.45,0,0,0-.28.38c0,.76,0,1.52,0,2.28a.7.7,0,0,0-.25,0,.45.45,0,0,0-.28.37c0,.59,0,1.18,0,1.76-.08,0-.18,0-.24,0a.44.44,0,0,0-.28.37c0,.58,0,1.17,0,1.76a.33.33,0,0,0-.43.16.42.42,0,0,0-.1.2c0,.41,0,.82,0,1.24a.33.33,0,0,0-.43.16.42.42,0,0,0-.1.2c0,.41,0,.82,0,1.24a.32.32,0,0,0-.42.16.42.42,0,0,0-.1.2c0,.41,0,.82,0,1.24a.7.7,0,0,0-.25,0,.47.47,0,0,0-.28.37c0,.25,0,.49-.23.66a.66.66,0,0,0-.31.63c0,.33,0,.67,0,1-.08,0-.19,0-.26,0a.42.42,0,0,0-.26.41.73.73,0,0,1-.3.67.46.46,0,0,0-.24.42c.06.43-.28.6-.51.87a1,1,0,0,1-.36.89,1.7,1.7,0,0,0-.19.19v.51l-.54.58v.79a.34.34,0,0,0-.42.15c0,.06-.11.12-.11.19,0,.24,0,.48,0,.72-.08,0-.19,0-.24,0a4.4,4.4,0,0,0-.82.85v.74c-.08,0-.2,0-.24,0a4.45,4.45,0,0,0-.83.85v.74c-.08,0-.19,0-.24,0a4.45,4.45,0,0,0-.83.85v.74a.4.4,0,0,0-.4.13.42.42,0,0,0-.13.41c-.09,0-.21,0-.26,0-.63.61-1.25,1.24-1.87,1.86v.8a.47.47,0,0,0-.54.54.37.37,0,0,0-.4.12.42.42,0,0,0-.13.41.46.46,0,0,0-.53.53.47.47,0,0,0-.54.54.37.37,0,0,0-.4.12.42.42,0,0,0-.13.41h-.8c-.62.62-1.25,1.24-1.86,1.87,0,0,0,.17,0,.26h-.75a13.53,13.53,0,0,0-1.37,1.36s0,.16,0,.24c-.24,0-.48,0-.72,0-.07,0-.13.07-.19.11a.33.33,0,0,0-.16.42h-.76a5.84,5.84,0,0,0-.83.82s0,.16,0,.24c-.24,0-.48,0-.72,0-.06,0-.13.07-.19.11a.34.34,0,0,0-.15.42c-.24,0-.48,0-.72,0-.07,0-.13.07-.2.11a.35.35,0,0,0-.15.42c-.24,0-.48,0-.72,0a.52.52,0,0,0-.19.11.34.34,0,0,0-.16.42c-.24,0-.48,0-.72,0-.06,0-.13.07-.19.11a.34.34,0,0,0-.15.42c-.34,0-.67,0-1,0a.66.66,0,0,0-.62.31c-.18.23-.41.22-.66.23a.48.48,0,0,0-.37.28c0,.07,0,.17,0,.25h-1.23a.5.5,0,0,0-.21.1.35.35,0,0,0-.16.43H200a.5.5,0,0,0-.21.1.35.35,0,0,0-.16.43h-1.23a.71.71,0,0,0-.21.11.34.34,0,0,0-.16.42h-2.28a.44.44,0,0,0-.38.27.74.74,0,0,0,0,.26h-2.81a.44.44,0,0,0-.38.28.67.67,0,0,0,0,.25H180.44c0-.09,0-.19,0-.25a.46.46,0,0,0-.39-.28h-2.81a.75.75,0,0,0,0-.26.47.47,0,0,0-.38-.27h-2.29a.33.33,0,0,0-.16-.42.56.56,0,0,0-.2-.11H173c0-.09,0-.19,0-.25a.45.45,0,0,0-.39-.28,4.94,4.94,0,0,1-1-.06,1,1,0,0,0-1.06-.48,2.69,2.69,0,0,1-.49,0l-.55-.5h-1.3a.34.34,0,0,0-.17-.44c-.06,0-.14-.1-.21-.09a.92.92,0,0,1-.84-.42.27.27,0,0,0-.2-.11c-.5.11-.7-.35-1-.54h-1.27c0-.09,0-.21,0-.26-.23-.26-.49-.5-.75-.76a1.14,1.14,0,0,1-.49-.06,4.53,4.53,0,0,1-.62-.5l-.51,0-.56-.53h-.79c0-.09,0-.2,0-.24a4.45,4.45,0,0,0-.85-.83h-.74c0-.08,0-.19,0-.24a4.45,4.45,0,0,0-.85-.83h-.74a.4.4,0,0,0-.13-.4.38.38,0,0,0-.41-.13c0-.09,0-.21,0-.26-.62-.63-1.24-1.26-1.86-1.87h-.8a.47.47,0,0,0-.54-.54.46.46,0,0,0-.53-.53.38.38,0,0,0-.13-.41.37.37,0,0,0-.4-.12.47.47,0,0,0-.54-.54v-.8l-1.87-1.86c-.05,0-.17,0-.26,0v-.75a12.66,12.66,0,0,0-1.36-1.38s-.16,0-.24,0v-.73c-.1-.12-.19-.25-.3-.36a5,5,0,0,0-.53-.5c-.05,0-.15,0-.24,0,0-.24,0-.48,0-.72,0-.07-.07-.13-.11-.19a.34.34,0,0,0-.42-.15v-.79l-.54-.57v-.51l-.54-.57v-.51a1.13,1.13,0,0,0-.19-.19,1,1,0,0,1-.36-.89,2.53,2.53,0,0,1-.5-.59.93.93,0,0,0-.42-.88.29.29,0,0,1-.11-.21c.06-.4-.2-.63-.44-.87a.63.63,0,0,1-.11-.48.46.46,0,0,0-.26-.41.76.76,0,0,0-.26,0c0-.34,0-.67,0-1a.66.66,0,0,0-.31-.62.78.78,0,0,1-.23-.66.46.46,0,0,0-.28-.37c-.07,0-.17,0-.25,0v-1.3l-.5-.55a2.53,2.53,0,0,1,0-.48,1,1,0,0,0-.48-1.06,5.08,5.08,0,0,1-.06-1,.47.47,0,0,0-.28-.38c-.06,0-.16,0-.25,0,0-.58,0-1.17,0-1.76a.49.49,0,0,0-.28-.37.7.7,0,0,0-.25,0c0-.76,0-1.52,0-2.28a.45.45,0,0,0-.28-.38c-.06,0-.16,0-.25,0,0-1.11,0-2.22,0-3.34a.46.46,0,0,0-.28-.39c-.06,0-.16,0-.25,0v-5.46a.45.45,0,0,0-.28-.4C138.5,155.28,138.39,155.31,138.31,155.31Zm57.06-44.44-1.94-2-.49,0-.94-.94a.35.35,0,0,0-.23-.09c-.42.07-.63-.23-.87-.48a4.22,4.22,0,0,0-1.08-.06l-.59-.52h-5.31l-.56.52h-1l-.57.53-.54,0-1,1c-.28.14-.69,0-.9.37l-2.64,2.64v.56l-.94.91c-.21.21-.05.52-.2.72s-.53.46-.47.88a.33.33,0,0,1-.09.22c-.11.14-.25.25-.36.39a.32.32,0,0,0-.07.23c.06.43-.28.61-.52.88v1l-.55.6v1l-.55.59v1.55l-.51.58a4.84,4.84,0,0,1-.07,1.09c-.24.24-.52.45-.48.87s0,.89,0,1.33-.23.63-.48.87a1.05,1.05,0,0,0-.06.24c0,.62,0,1.25,0,1.91l-.51.59v3.15l-.55.59v9l-.52.56v21.33a1.89,1.89,0,0,0,.2.2.86.86,0,0,1,.33.67c0,1.42,0,2.84,0,4.26a.88.88,0,0,0,.06.26,1.14,1.14,0,0,1,.48,1.12c0,.89,0,1.78,0,2.67a1.08,1.08,0,0,0,.47.87.73.73,0,0,1,.07.24c0,.8,0,1.6,0,2.4a1.15,1.15,0,0,0,.51,1.11c0,.1,0,.18,0,.27v2.42l.53.57v1.58l.55.59v1l.51.58a5.38,5.38,0,0,0,.06,1.08c.24.25.54.45.49.87a.5.5,0,0,0,.27.42.46.46,0,0,1,.25.42c-.06.43.28.61.5.87l0,.54.53.57v.51a6.72,6.72,0,0,0,.76.75c.32.25.29.6.37.92l3.95,3.95h.51l.59.53h.83a1.47,1.47,0,0,1,.26.05,1.16,1.16,0,0,0,1.11.49c1.51,0,3,0,4.54,0a.53.53,0,0,0,.42-.27.54.54,0,0,1,.42-.26.82.82,0,0,1,.27,0,1.06,1.06,0,0,0,1.12-.5,1,1,0,0,0,.92-.37,1.75,1.75,0,0,1,.19-.2h.54l3.38-3.38c.14-.3,0-.68.37-.92a6.9,6.9,0,0,0,.77-.76v-.5l.55-.6v-.5l.55-.6v-1a1.13,1.13,0,0,0,.52-1.15.67.67,0,0,1,.26-.69.67.67,0,0,0,.26-.69,1.06,1.06,0,0,1,.49-1.12,12.42,12.42,0,0,0,0-1.62l.53-.58v-1.56l.54-.6v-1.56l.53-.58v-2.43a1.73,1.73,0,0,1,.06-.3c.44-.2.5-.6.48-1.07s0-1.07,0-1.6a2.8,2.8,0,0,1,.07-1,1.07,1.07,0,0,0,.47-.88c0-1.24,0-2.48,0-3.73a1.15,1.15,0,0,1,.49-1.12,5.84,5.84,0,0,0,.05-1.32q0-11.73,0-23.46a.89.89,0,0,0-.33-.67,1.89,1.89,0,0,1-.2-.2v-4.77l-.55-.59v-4.24l-.53-.58v-3c0-.08,0-.17,0-.22l-.43-.5c-.15-.65,0-1.18-.14-1.69-.48-.46-.47-.47-.47-.88a4.64,4.64,0,0,1,0-.53,1.08,1.08,0,0,0-.51-1.14v-1l-.55-.62v-1l-.55-.59v-.52a1.19,1.19,0,0,0-.2-.19,1,1,0,0,1-.36-.9c-.42-.41-.42-.41-.5-.88a.58.58,0,0,0-.27-.42.48.48,0,0,1-.26-.42c.06-.42-.25-.62-.5-.87a1.1,1.1,0,0,0-.36-.91c-.28-.22-.53-.48-.75-.69Z"/></g></g></svg>